<svg width="649" height="448" viewBox="0 0 649 448" fill="none" xmlns="http://www.w3.org/2000/svg">
<g clip-path="url(#clip0_2782_346668)">
<path opacity="0.1" d="M367.093 60.993C325.493 61.0487 285.452 49.2573 247.152 36.1583C208.852 23.0592 170.847 8.39092 130.02 2.17527C103.764 -1.82011 73.9062 -1.45285 53.3816 13.0541C33.625 27.0101 27.904 50.1087 25.1436 71.4489C23.0678 87.5028 22.1106 104.352 29.8852 119.037C35.2835 129.232 44.5218 137.634 51.0331 147.35C73.7615 181.149 60.0933 224.325 38.0049 258.909C27.648 275.135 15.5158 290.688 7.68553 307.844C-0.144746 325 -3.35588 344.454 4.63022 361.387C12.544 378.169 30.4195 390.35 49.6028 398.669C88.5594 415.597 133.916 419.225 178.054 420.622C275.757 423.721 373.649 417.4 471.28 411.078C507.409 408.741 543.7 406.387 579.084 399.615C598.729 395.859 618.959 390.284 632.889 378.064C650.569 362.55 654.187 337.22 641.32 319.012C619.744 288.474 562.85 282.714 547.379 249.672C538.847 231.481 546.205 210.619 557.04 193.085C580.281 155.463 620.283 121.764 620.957 79.6845C621.419 50.7876 600.616 22.5973 569.545 10.038C536.978 -3.11666 492.573 0.266615 469.755 24.7842C446.292 50.0419 403.824 60.9541 367.093 60.993Z" fill="#809EFF"/>
<path d="M552.366 359.117C552.366 359.117 545.526 354.604 538.748 357.815C538.748 357.815 540.835 361.832 549.416 361.454L552.366 359.117Z" fill="#809EFF"/>
<path d="M553.234 359.356C553.234 359.356 555.315 367.28 550.095 372.672C550.095 372.672 546.956 369.406 550.095 361.404L553.234 359.356Z" fill="#809EFF"/>
<path d="M561.737 351.749C561.737 351.749 561.231 345.01 546.01 347.247C546.01 347.247 545.937 351.593 551.28 353.652C556.623 355.711 559.071 353.975 561.737 351.749Z" fill="#809EFF"/>
<path d="M562.694 351.705C562.694 351.705 569.128 353.769 563.39 368.042C563.39 368.042 559.144 367.096 558.381 361.415C557.619 355.733 559.878 353.775 562.694 351.705Z" fill="#809EFF"/>
<path d="M571.287 342.145C571.287 342.145 572.161 331.054 556.606 332.19C556.606 332.19 555.493 342.206 568.544 344.81L571.287 342.145Z" fill="#809EFF"/>
<path d="M581.566 329.624C581.566 329.624 579.434 317.054 563.885 320.799C563.885 320.799 563.83 331.667 579.028 332.618L581.566 329.624Z" fill="#809EFF"/>
<path d="M589.079 316.681C589.079 316.681 585.506 304.439 570.102 308.1C570.102 308.1 573.769 319.113 588.055 318.94L589.079 316.681Z" fill="#809EFF"/>
<path d="M596.214 304.038C596.214 304.038 592.724 291.334 577.849 295.135C577.849 295.135 582.813 307.205 595.229 306.186L596.214 304.038Z" fill="#809EFF"/>
<path d="M600.811 292.03C600.811 292.03 598.128 276.494 584.26 279.933C584.26 279.933 588.289 294.067 599.792 294.295L600.811 292.03Z" fill="#809EFF"/>
<path d="M605.124 277.523C605.124 277.523 601.902 261.864 587.872 266.394C587.872 266.394 593.37 281.196 604.128 279.665L605.124 277.523Z" fill="#809EFF"/>
<path d="M607.773 264.023C607.773 264.023 602.658 248.359 591.812 248.782C591.812 248.782 597.037 265.325 606.866 267.145L607.773 264.023Z" fill="#809EFF"/>
<path d="M609.487 250.846C609.487 250.846 603.922 231.993 595.095 233.446C595.095 233.446 598.946 247.858 609.175 253.784L609.487 250.846Z" fill="#809EFF"/>
<path d="M610.455 235.126C610.455 235.126 605.235 219.418 596.542 218.789C596.542 218.789 600.093 234.247 610.283 239.211L610.455 235.126Z" fill="#809EFF"/>
<path d="M611.507 220.458C611.507 220.458 605.001 204.733 599.264 204.376C599.264 204.376 602.091 219.863 610.951 223.04L611.507 220.458Z" fill="#809EFF"/>
<path d="M612.225 206.814C612.225 206.814 608.223 189.736 602.475 188.317C602.475 188.317 603.259 202.29 611.646 208.094L612.225 206.814Z" fill="#809EFF"/>
<path d="M614.396 188.94C614.396 188.94 610.188 175.324 605.53 173.248C605.53 173.248 606.449 189.302 613.322 192.268L614.396 188.94Z" fill="#809EFF"/>
<path d="M616.193 177.255L617.039 153.249C617.039 153.249 608.329 171.345 615.564 181.467L616.193 177.255Z" fill="#809EFF"/>
<path d="M622.916 153.377C622.916 153.377 629.188 135.849 630.707 134.869C630.707 134.869 618.408 146.243 619.61 160.872L622.916 153.377Z" fill="#809EFF"/>
<path d="M571.71 342.061C571.71 342.061 582.741 340.62 582.412 356.206C582.412 356.206 572.445 357.831 569.189 344.938L571.71 342.061Z" fill="#809EFF"/>
<path d="M582.089 329.201C582.089 329.201 594.833 329.162 593.776 345.116C593.776 345.116 583.074 347.03 579.546 332.217L582.089 329.201Z" fill="#809EFF"/>
<path d="M589.202 317.71C589.202 317.71 600.772 312.285 608.174 326.291C608.174 326.291 597.488 330.81 588.178 319.975L589.202 317.71Z" fill="#809EFF"/>
<path d="M596.47 304.155C596.47 304.155 608.318 298.385 615.275 312.063C615.275 312.063 602.931 316.314 595.49 306.32L596.47 304.155Z" fill="#809EFF"/>
<path d="M600.66 292.369C600.66 292.369 612.064 281.479 621.163 292.492C621.163 292.492 609.515 301.456 600.137 294.796L600.66 292.369Z" fill="#809EFF"/>
<path d="M604.478 277.15C604.478 277.15 615.948 266.021 624.975 277.662C624.975 277.662 612.103 286.805 604.066 279.487L604.478 277.15Z" fill="#809EFF"/>
<path d="M606.621 263.578C606.621 263.578 615.458 249.667 625.865 252.772C625.865 252.772 616.694 267.501 606.721 266.845L606.621 263.578Z" fill="#809EFF"/>
<path d="M609.225 250.757C609.225 250.757 618.13 233.24 626.555 236.289C626.555 236.289 620.133 249.756 608.997 253.712L609.225 250.757Z" fill="#809EFF"/>
<path d="M609.843 234.214C609.843 234.214 618.998 220.425 627.574 222.111C627.574 222.111 620.089 236.095 608.953 238.204L609.843 234.214Z" fill="#809EFF"/>
<path d="M610.556 220.152C610.556 220.152 617.651 204.677 623.417 204.571C623.417 204.571 620.011 219.935 611.034 222.779L610.556 220.152Z" fill="#809EFF"/>
<path d="M611.947 206.48C611.947 206.48 619.833 190.81 625.76 190.777C625.76 190.777 621.725 204.176 612.208 207.854L611.947 206.48Z" fill="#809EFF"/>
<path d="M613.132 189.92C613.132 189.92 619.031 176.954 623.918 175.485C623.918 175.485 620.968 191.289 613.783 193.359L613.132 189.92Z" fill="#809EFF"/>
<path d="M616.894 176.782L630.078 156.699C630.078 156.699 626.7 176.509 614.968 180.627L616.894 176.782Z" fill="#809EFF"/>
<path d="M625.943 154.996C625.943 154.996 641.264 144.424 641.82 142.715C641.82 142.715 634.029 157.523 619.56 160.138L625.943 154.996Z" fill="#809EFF"/>
<path d="M626.861 150.239C626.861 150.239 644.453 133.328 648.944 133.344C648.944 133.344 634.436 134.007 626.438 149.337L626.861 150.239Z" fill="#809EFF"/>
<path d="M613.304 192.429L613.944 192.513C617.25 166.643 622.069 151.335 627.512 149.459L627.301 148.847C621.53 150.851 616.677 165.925 613.304 192.429Z" fill="#1D1929"/>
<path d="M608.44 254.296L609.409 254.374C609.615 251.959 609.771 249.489 609.876 247.023C610.8 225.611 612.23 205.946 614.111 191.205L613.555 190.509C611.668 205.283 609.832 225.539 608.908 246.985C608.802 249.433 608.646 251.893 608.44 254.296Z" fill="#1D1929"/>
<path d="M534.312 371.459C534.479 371.387 551.525 363.774 569.217 345.623C579.582 334.991 588.195 322.783 594.733 309.453C602.914 292.798 607.901 272.331 609.57 252.449L608.563 252.922C604.807 297.55 584.488 328.044 568.332 344.654C550.813 362.645 533.956 370.179 533.789 370.252L534.312 371.459Z" fill="#1D1929"/>
<path d="M578.45 47.4271H43.6984C42.435 47.4271 41.2233 47.9289 40.3299 48.8222C39.4365 49.7155 38.9346 50.9271 38.9346 52.1904V66.0685H583.214V52.1904C583.214 50.9271 582.712 49.7155 581.818 48.8222C580.925 47.9289 579.713 47.4271 578.45 47.4271Z" fill="#34303E"/>
<path d="M38.9346 66.0685V378.376C38.9346 380.923 39.9466 383.366 41.748 385.167C43.5494 386.968 45.9926 387.98 48.5401 387.98H573.608C576.156 387.98 578.599 386.968 580.4 385.167C582.202 383.366 583.214 380.923 583.214 378.376V66.0685H38.9346Z" fill="white"/>
<path opacity="0.8" d="M47.5547 58.8345C48.7841 58.8345 49.7808 57.8379 49.7808 56.6087C49.7808 55.3794 48.7841 54.3828 47.5547 54.3828C46.3253 54.3828 45.3286 55.3794 45.3286 56.6087C45.3286 57.8379 46.3253 58.8345 47.5547 58.8345Z" fill="#DC2425"/>
<path opacity="0.8" d="M53.6763 58.8345C54.9057 58.8345 55.9024 57.8379 55.9024 56.6087C55.9024 55.3794 54.9057 54.3828 53.6763 54.3828C52.4469 54.3828 51.4502 55.3794 51.4502 56.6087C51.4502 57.8379 52.4469 58.8345 53.6763 58.8345Z" fill="#FFDE54"/>
<path opacity="0.8" d="M59.7984 58.8345C61.0278 58.8345 62.0245 57.8379 62.0245 56.6087C62.0245 55.3794 61.0278 54.3828 59.7984 54.3828C58.5689 54.3828 57.5723 55.3794 57.5723 56.6087C57.5723 57.8379 58.5689 58.8345 59.7984 58.8345Z" fill="#1BD2A4"/>
<path opacity="0.05" d="M526.955 118.142H89.5278V310.465H526.955V118.142Z" fill="black"/>
<path d="M523.615 119.6H92.8667V307.683H523.615V119.6Z" fill="#34303E"/>
<path d="M210.293 168.006C201.818 168.006 193.533 170.519 186.486 175.227C179.439 179.936 173.946 186.627 170.703 194.457C167.459 202.286 166.611 210.901 168.264 219.213C169.918 227.524 173.999 235.159 179.992 241.151C185.985 247.144 193.621 251.224 201.933 252.878C210.246 254.531 218.862 253.683 226.692 250.439C234.522 247.196 241.215 241.705 245.924 234.658C250.632 227.612 253.145 219.328 253.145 210.854C253.145 205.227 252.037 199.655 249.883 194.457C247.73 189.258 244.573 184.535 240.594 180.556C236.615 176.577 231.891 173.421 226.692 171.268C221.493 169.115 215.921 168.006 210.293 168.006ZM217.979 211.883V232.172H202.83V211.883C200.734 210.296 199.189 208.092 198.413 205.58C197.638 203.068 197.671 200.376 198.508 197.884C199.345 195.391 200.943 193.225 203.078 191.69C205.213 190.156 207.775 189.33 210.404 189.33C213.034 189.33 215.596 190.156 217.731 191.69C219.866 193.225 221.464 195.391 222.301 197.884C223.138 200.376 223.171 203.068 222.396 205.58C221.62 208.092 220.075 210.296 217.979 211.883Z" fill="#809EFF"/>
<path opacity="0.05" d="M210.293 168.006C201.818 168.006 193.533 170.519 186.486 175.227C179.439 179.936 173.946 186.627 170.703 194.457C167.459 202.286 166.611 210.901 168.264 219.213C169.918 227.524 173.999 235.159 179.992 241.151C185.985 247.144 193.621 251.224 201.933 252.878C210.246 254.531 218.862 253.683 226.692 250.439C234.522 247.196 241.215 241.705 245.924 234.658C250.632 227.612 253.145 219.328 253.145 210.854C253.145 205.227 252.037 199.655 249.883 194.457C247.73 189.258 244.573 184.535 240.594 180.556C236.615 176.577 231.891 173.421 226.692 171.268C221.493 169.115 215.921 168.006 210.293 168.006ZM217.979 211.883V232.172H202.83V211.883C200.734 210.296 199.189 208.092 198.413 205.58C197.638 203.068 197.671 200.376 198.508 197.884C199.345 195.391 200.943 193.225 203.078 191.69C205.213 190.156 207.775 189.33 210.404 189.33C213.034 189.33 215.596 190.156 217.731 191.69C219.866 193.225 221.464 195.391 222.301 197.884C223.138 200.376 223.171 203.068 222.396 205.58C221.62 208.092 220.075 210.296 217.979 211.883Z" fill="black"/>
<path d="M210.293 155.764C199.396 155.764 188.744 158.995 179.683 165.048C170.623 171.102 163.561 179.706 159.391 189.772C155.221 199.838 154.13 210.915 156.256 221.601C158.382 232.287 163.629 242.103 171.334 249.808C179.04 257.512 188.857 262.759 199.544 264.885C210.232 267.01 221.31 265.919 231.377 261.75C241.445 257.58 250.049 250.519 256.103 241.46C262.157 232.4 265.389 221.749 265.389 210.854C265.389 196.243 259.584 182.231 249.252 171.9C238.919 161.568 224.905 155.764 210.293 155.764ZM220.171 212.178V238.259H200.693V212.178C197.997 210.138 196.009 207.302 195.012 204.072C194.014 200.841 194.056 197.379 195.132 194.174C196.208 190.969 198.264 188.183 201.01 186.209C203.755 184.235 207.051 183.173 210.432 183.173C213.814 183.173 217.11 184.235 219.855 186.209C222.6 188.183 224.656 190.969 225.732 194.174C226.808 197.379 226.85 200.841 225.853 204.072C224.855 207.302 222.868 210.138 220.171 212.178Z" fill="#809EFF"/>
<path d="M466.293 203.625H288.206V222.545H466.293V203.625Z" fill="white"/>
<path d="M466.294 238.126H427.894V257.045H466.294V238.126Z" fill="#809EFF"/>
<path d="M305.737 212.801H302.514L305.38 209.941C305.432 209.888 305.46 209.817 305.46 209.744C305.46 209.67 305.432 209.599 305.38 209.546C305.355 209.52 305.324 209.499 305.29 209.485C305.256 209.471 305.22 209.464 305.183 209.464C305.146 209.464 305.11 209.471 305.076 209.485C305.042 209.499 305.011 209.52 304.985 209.546L302.119 212.412V209.184C302.119 209.111 302.09 209.04 302.038 208.988C301.985 208.935 301.915 208.906 301.841 208.906C301.768 208.907 301.698 208.937 301.646 208.989C301.594 209.041 301.564 209.111 301.563 209.184V212.412L298.702 209.529C298.676 209.503 298.645 209.483 298.612 209.468C298.578 209.454 298.541 209.447 298.505 209.447C298.468 209.447 298.431 209.454 298.398 209.468C298.364 209.483 298.333 209.503 298.307 209.529C298.256 209.582 298.227 209.653 298.227 209.727C298.227 209.801 298.256 209.871 298.307 209.924L301.173 212.785H297.945C297.872 212.786 297.802 212.816 297.75 212.868C297.698 212.92 297.668 212.989 297.667 213.063C297.667 213.137 297.696 213.207 297.748 213.26C297.801 213.312 297.871 213.341 297.945 213.341H301.173L298.307 216.207C298.256 216.26 298.227 216.331 298.227 216.404C298.227 216.478 298.256 216.549 298.307 216.602C298.361 216.652 298.431 216.68 298.505 216.68C298.578 216.68 298.649 216.652 298.702 216.602L301.563 213.736V216.958C301.563 217.032 301.592 217.103 301.644 217.155C301.696 217.207 301.767 217.236 301.841 217.236C301.915 217.236 301.985 217.207 302.038 217.155C302.09 217.103 302.119 217.032 302.119 216.958V213.736L304.985 216.602C305.039 216.652 305.109 216.68 305.183 216.68C305.256 216.68 305.327 216.652 305.38 216.602C305.432 216.549 305.46 216.478 305.46 216.404C305.46 216.331 305.432 216.26 305.38 216.207L302.514 213.341H305.737C305.81 213.341 305.881 213.312 305.933 213.26C305.985 213.207 306.015 213.137 306.015 213.063C306.011 212.992 305.979 212.925 305.928 212.877C305.876 212.828 305.808 212.801 305.737 212.801Z" fill="#809EFF"/>
<path d="M317.424 212.801H314.201L317.067 209.941C317.119 209.888 317.147 209.817 317.147 209.744C317.147 209.67 317.119 209.599 317.067 209.546C317.042 209.52 317.011 209.499 316.977 209.485C316.943 209.471 316.907 209.464 316.87 209.464C316.833 209.464 316.797 209.471 316.763 209.485C316.729 209.499 316.698 209.52 316.672 209.546L313.806 212.412V209.184C313.806 209.111 313.777 209.04 313.725 208.988C313.672 208.935 313.602 208.906 313.528 208.906C313.455 208.907 313.385 208.937 313.333 208.989C313.281 209.041 313.251 209.111 313.25 209.184V212.412L310.389 209.529C310.363 209.503 310.332 209.483 310.299 209.468C310.265 209.454 310.228 209.447 310.192 209.447C310.155 209.447 310.118 209.454 310.085 209.468C310.051 209.483 310.02 209.503 309.994 209.529C309.943 209.582 309.914 209.653 309.914 209.727C309.914 209.801 309.943 209.871 309.994 209.924L312.86 212.785H309.632C309.559 212.786 309.489 212.816 309.437 212.868C309.385 212.92 309.355 212.989 309.354 213.063C309.354 213.137 309.383 213.207 309.435 213.26C309.488 213.312 309.558 213.341 309.632 213.341H312.86L309.994 216.207C309.943 216.26 309.914 216.331 309.914 216.404C309.914 216.478 309.943 216.549 309.994 216.602C310.048 216.652 310.118 216.68 310.192 216.68C310.265 216.68 310.336 216.652 310.389 216.602L313.25 213.736V216.958C313.25 217.032 313.279 217.103 313.331 217.155C313.383 217.207 313.454 217.236 313.528 217.236C313.602 217.236 313.672 217.207 313.725 217.155C313.777 217.103 313.806 217.032 313.806 216.958V213.736L316.672 216.602C316.726 216.652 316.796 216.68 316.87 216.68C316.943 216.68 317.014 216.652 317.067 216.602C317.119 216.549 317.147 216.478 317.147 216.404C317.147 216.331 317.119 216.26 317.067 216.207L314.201 213.341H317.424C317.497 213.341 317.568 213.312 317.62 213.26C317.673 213.207 317.702 213.137 317.702 213.063C317.698 212.992 317.666 212.925 317.615 212.877C317.563 212.828 317.495 212.801 317.424 212.801Z" fill="#809EFF"/>
<path d="M329.111 212.801H325.888L328.754 209.941C328.806 209.888 328.834 209.817 328.834 209.744C328.834 209.67 328.806 209.599 328.754 209.546C328.729 209.52 328.698 209.499 328.664 209.485C328.63 209.471 328.594 209.464 328.557 209.464C328.52 209.464 328.484 209.471 328.45 209.485C328.416 209.499 328.385 209.52 328.359 209.546L325.493 212.412V209.184C325.493 209.111 325.464 209.04 325.412 208.988C325.36 208.935 325.289 208.906 325.215 208.906C325.142 208.907 325.072 208.937 325.02 208.989C324.968 209.041 324.938 209.111 324.937 209.184V212.412L322.076 209.529C322.05 209.503 322.019 209.483 321.986 209.468C321.952 209.454 321.915 209.447 321.879 209.447C321.842 209.447 321.805 209.454 321.772 209.468C321.738 209.483 321.707 209.503 321.681 209.529C321.63 209.582 321.601 209.653 321.601 209.727C321.601 209.801 321.63 209.871 321.681 209.924L324.547 212.785H321.319C321.246 212.786 321.176 212.816 321.124 212.868C321.072 212.92 321.042 212.989 321.041 213.063C321.041 213.137 321.07 213.207 321.123 213.26C321.175 213.312 321.245 213.341 321.319 213.341H324.547L321.681 216.207C321.63 216.26 321.601 216.331 321.601 216.404C321.601 216.478 321.63 216.549 321.681 216.602C321.735 216.652 321.805 216.68 321.879 216.68C321.952 216.68 322.023 216.652 322.076 216.602L324.937 213.736V216.958C324.937 217.032 324.966 217.103 325.018 217.155C325.07 217.207 325.141 217.236 325.215 217.236C325.289 217.236 325.36 217.207 325.412 217.155C325.464 217.103 325.493 217.032 325.493 216.958V213.736L328.359 216.602C328.413 216.652 328.483 216.68 328.557 216.68C328.63 216.68 328.701 216.652 328.754 216.602C328.806 216.549 328.834 216.478 328.834 216.404C328.834 216.331 328.806 216.26 328.754 216.207L325.888 213.341H329.111C329.184 213.341 329.255 213.312 329.307 213.26C329.36 213.207 329.389 213.137 329.389 213.063C329.385 212.992 329.353 212.925 329.302 212.877C329.25 212.828 329.182 212.801 329.111 212.801Z" fill="#809EFF"/>
<path d="M340.798 212.801H337.575L340.441 209.941C340.493 209.888 340.521 209.817 340.521 209.744C340.521 209.67 340.493 209.599 340.441 209.546C340.416 209.52 340.385 209.499 340.351 209.485C340.317 209.471 340.281 209.464 340.244 209.464C340.207 209.464 340.171 209.471 340.137 209.485C340.103 209.499 340.072 209.52 340.046 209.546L337.18 212.412V209.184C337.18 209.111 337.151 209.04 337.099 208.988C337.047 208.935 336.976 208.906 336.902 208.906C336.829 208.907 336.759 208.937 336.707 208.989C336.655 209.041 336.625 209.111 336.624 209.184V212.412L333.763 209.529C333.737 209.503 333.707 209.483 333.673 209.468C333.639 209.454 333.602 209.447 333.566 209.447C333.529 209.447 333.492 209.454 333.459 209.468C333.425 209.483 333.394 209.503 333.368 209.529C333.317 209.582 333.288 209.653 333.288 209.727C333.288 209.801 333.317 209.871 333.368 209.924L336.234 212.785H333.006C332.933 212.786 332.863 212.816 332.811 212.868C332.759 212.92 332.729 212.989 332.728 213.063C332.728 213.137 332.757 213.207 332.81 213.26C332.862 213.312 332.932 213.341 333.006 213.341H336.234L333.368 216.207C333.317 216.26 333.288 216.331 333.288 216.404C333.288 216.478 333.317 216.549 333.368 216.602C333.422 216.652 333.492 216.68 333.566 216.68C333.639 216.68 333.71 216.652 333.763 216.602L336.624 213.736V216.958C336.624 217.032 336.653 217.103 336.705 217.155C336.757 217.207 336.828 217.236 336.902 217.236C336.976 217.236 337.047 217.207 337.099 217.155C337.151 217.103 337.18 217.032 337.18 216.958V213.736L340.046 216.602C340.1 216.652 340.17 216.68 340.244 216.68C340.317 216.68 340.388 216.652 340.441 216.602C340.493 216.549 340.521 216.478 340.521 216.404C340.521 216.331 340.493 216.26 340.441 216.207L337.575 213.341H340.798C340.871 213.341 340.942 213.312 340.994 213.26C341.047 213.207 341.076 213.137 341.076 213.063C341.072 212.992 341.04 212.925 340.989 212.877C340.937 212.828 340.869 212.801 340.798 212.801Z" fill="#809EFF"/>
<path d="M352.485 212.801H349.262L352.128 209.941C352.18 209.888 352.208 209.817 352.208 209.744C352.208 209.67 352.18 209.599 352.128 209.546C352.103 209.52 352.072 209.499 352.038 209.485C352.004 209.471 351.968 209.464 351.931 209.464C351.894 209.464 351.858 209.471 351.824 209.485C351.79 209.499 351.759 209.52 351.733 209.546L348.867 212.412V209.184C348.867 209.111 348.838 209.04 348.786 208.988C348.734 208.935 348.663 208.906 348.589 208.906C348.516 208.907 348.446 208.937 348.394 208.989C348.342 209.041 348.312 209.111 348.311 209.184V212.412L345.45 209.529C345.424 209.503 345.394 209.483 345.36 209.468C345.326 209.454 345.289 209.447 345.253 209.447C345.216 209.447 345.179 209.454 345.146 209.468C345.112 209.483 345.081 209.503 345.055 209.529C345.004 209.582 344.975 209.653 344.975 209.727C344.975 209.801 345.004 209.871 345.055 209.924L347.921 212.785H344.693C344.62 212.786 344.55 212.816 344.498 212.868C344.446 212.92 344.416 212.989 344.415 213.063C344.415 213.137 344.444 213.207 344.497 213.26C344.549 213.312 344.62 213.341 344.693 213.341H347.921L345.055 216.207C345.004 216.26 344.975 216.331 344.975 216.404C344.975 216.478 345.004 216.549 345.055 216.602C345.109 216.652 345.179 216.68 345.253 216.68C345.326 216.68 345.397 216.652 345.45 216.602L348.311 213.736V216.958C348.311 217.032 348.34 217.103 348.392 217.155C348.444 217.207 348.515 217.236 348.589 217.236C348.663 217.236 348.734 217.207 348.786 217.155C348.838 217.103 348.867 217.032 348.867 216.958V213.736L351.733 216.602C351.787 216.652 351.857 216.68 351.931 216.68C352.004 216.68 352.075 216.652 352.128 216.602C352.18 216.549 352.208 216.478 352.208 216.404C352.208 216.331 352.18 216.26 352.128 216.207L349.262 213.341H352.485C352.558 213.341 352.629 213.312 352.681 213.26C352.734 213.207 352.763 213.137 352.763 213.063C352.759 212.992 352.727 212.925 352.676 212.877C352.624 212.828 352.556 212.801 352.485 212.801Z" fill="#809EFF"/>
<path d="M364.172 212.801H360.949L363.815 209.941C363.867 209.888 363.895 209.817 363.895 209.744C363.895 209.67 363.867 209.599 363.815 209.546C363.79 209.52 363.759 209.499 363.725 209.485C363.691 209.471 363.655 209.464 363.618 209.464C363.581 209.464 363.545 209.471 363.511 209.485C363.477 209.499 363.446 209.52 363.42 209.546L360.554 212.412V209.184C360.554 209.111 360.525 209.04 360.473 208.988C360.421 208.935 360.35 208.906 360.276 208.906C360.203 208.907 360.133 208.937 360.081 208.989C360.029 209.041 359.999 209.111 359.998 209.184V212.412L357.137 209.529C357.111 209.503 357.081 209.483 357.047 209.468C357.013 209.454 356.976 209.447 356.94 209.447C356.903 209.447 356.866 209.454 356.833 209.468C356.799 209.483 356.768 209.503 356.742 209.529C356.691 209.582 356.662 209.653 356.662 209.727C356.662 209.801 356.691 209.871 356.742 209.924L359.608 212.785H356.38C356.307 212.786 356.237 212.816 356.185 212.868C356.133 212.92 356.103 212.989 356.102 213.063C356.102 213.137 356.131 213.207 356.184 213.26C356.236 213.312 356.307 213.341 356.38 213.341H359.608L356.742 216.207C356.691 216.26 356.662 216.331 356.662 216.404C356.662 216.478 356.691 216.549 356.742 216.602C356.796 216.652 356.866 216.68 356.94 216.68C357.013 216.68 357.084 216.652 357.137 216.602L359.998 213.736V216.958C359.998 217.032 360.027 217.103 360.079 217.155C360.131 217.207 360.202 217.236 360.276 217.236C360.35 217.236 360.421 217.207 360.473 217.155C360.525 217.103 360.554 217.032 360.554 216.958V213.736L363.42 216.602C363.474 216.652 363.545 216.68 363.618 216.68C363.691 216.68 363.762 216.652 363.815 216.602C363.867 216.549 363.895 216.478 363.895 216.404C363.895 216.331 363.867 216.26 363.815 216.207L360.949 213.341H364.172C364.245 213.341 364.316 213.312 364.368 213.26C364.421 213.207 364.45 213.137 364.45 213.063C364.446 212.992 364.414 212.925 364.363 212.877C364.311 212.828 364.243 212.801 364.172 212.801Z" fill="#809EFF"/>
<path d="M375.859 212.801H372.636L375.502 209.941C375.554 209.888 375.582 209.817 375.582 209.744C375.582 209.67 375.554 209.599 375.502 209.546C375.477 209.52 375.446 209.499 375.412 209.485C375.378 209.471 375.342 209.464 375.305 209.464C375.268 209.464 375.232 209.471 375.198 209.485C375.164 209.499 375.133 209.52 375.107 209.546L372.241 212.412V209.184C372.241 209.111 372.212 209.04 372.16 208.988C372.108 208.935 372.037 208.906 371.963 208.906C371.89 208.907 371.82 208.937 371.768 208.989C371.716 209.041 371.686 209.111 371.685 209.184V212.412L368.824 209.529C368.798 209.503 368.768 209.483 368.734 209.468C368.7 209.454 368.663 209.447 368.627 209.447C368.59 209.447 368.554 209.454 368.52 209.468C368.486 209.483 368.455 209.503 368.429 209.529C368.378 209.582 368.349 209.653 368.349 209.727C368.349 209.801 368.378 209.871 368.429 209.924L371.295 212.785H368.067C367.994 212.786 367.924 212.816 367.872 212.868C367.82 212.92 367.79 212.989 367.789 213.063C367.789 213.137 367.818 213.207 367.871 213.26C367.923 213.312 367.994 213.341 368.067 213.341H371.295L368.429 216.207C368.378 216.26 368.349 216.331 368.349 216.404C368.349 216.478 368.378 216.549 368.429 216.602C368.483 216.652 368.553 216.68 368.627 216.68C368.7 216.68 368.771 216.652 368.824 216.602L371.685 213.736V216.958C371.685 217.032 371.714 217.103 371.766 217.155C371.818 217.207 371.889 217.236 371.963 217.236C372.037 217.236 372.108 217.207 372.16 217.155C372.212 217.103 372.241 217.032 372.241 216.958V213.736L375.107 216.602C375.161 216.652 375.232 216.68 375.305 216.68C375.378 216.68 375.449 216.652 375.502 216.602C375.554 216.549 375.582 216.478 375.582 216.404C375.582 216.331 375.554 216.26 375.502 216.207L372.636 213.341H375.859C375.932 213.341 376.003 213.312 376.055 213.26C376.108 213.207 376.137 213.137 376.137 213.063C376.133 212.992 376.101 212.925 376.05 212.877C375.998 212.828 375.93 212.801 375.859 212.801Z" fill="#809EFF"/>
<path d="M387.546 212.801H384.323L387.189 209.941C387.241 209.888 387.269 209.817 387.269 209.744C387.269 209.67 387.241 209.599 387.189 209.546C387.164 209.52 387.133 209.499 387.099 209.485C387.065 209.471 387.029 209.464 386.992 209.464C386.955 209.464 386.919 209.471 386.885 209.485C386.851 209.499 386.82 209.52 386.794 209.546L383.928 212.412V209.184C383.928 209.111 383.899 209.04 383.847 208.988C383.795 208.935 383.724 208.906 383.65 208.906C383.577 208.907 383.507 208.937 383.455 208.989C383.403 209.041 383.373 209.111 383.372 209.184V212.412L380.511 209.529C380.485 209.503 380.455 209.483 380.421 209.468C380.387 209.454 380.35 209.447 380.314 209.447C380.277 209.447 380.241 209.454 380.207 209.468C380.173 209.483 380.142 209.503 380.116 209.529C380.065 209.582 380.036 209.653 380.036 209.727C380.036 209.801 380.065 209.871 380.116 209.924L382.982 212.785H379.754C379.681 212.786 379.611 212.816 379.559 212.868C379.507 212.92 379.477 212.989 379.476 213.063C379.476 213.137 379.505 213.207 379.558 213.26C379.61 213.312 379.681 213.341 379.754 213.341H382.982L380.116 216.207C380.065 216.26 380.036 216.331 380.036 216.404C380.036 216.478 380.065 216.549 380.116 216.602C380.17 216.652 380.24 216.68 380.314 216.68C380.387 216.68 380.458 216.652 380.511 216.602L383.372 213.736V216.958C383.372 217.032 383.401 217.103 383.453 217.155C383.505 217.207 383.576 217.236 383.65 217.236C383.724 217.236 383.795 217.207 383.847 217.155C383.899 217.103 383.928 217.032 383.928 216.958V213.736L386.794 216.602C386.848 216.652 386.919 216.68 386.992 216.68C387.065 216.68 387.136 216.652 387.189 216.602C387.241 216.549 387.269 216.478 387.269 216.404C387.269 216.331 387.241 216.26 387.189 216.207L384.323 213.341H387.546C387.619 213.341 387.69 213.312 387.742 213.26C387.795 213.207 387.824 213.137 387.824 213.063C387.82 212.992 387.788 212.925 387.737 212.877C387.685 212.828 387.617 212.801 387.546 212.801Z" fill="#809EFF"/>
<path d="M399.233 212.801H396.01L398.876 209.941C398.928 209.888 398.957 209.817 398.957 209.744C398.957 209.67 398.928 209.599 398.876 209.546C398.851 209.52 398.82 209.499 398.786 209.485C398.752 209.471 398.716 209.464 398.679 209.464C398.642 209.464 398.606 209.471 398.572 209.485C398.538 209.499 398.507 209.52 398.481 209.546L395.615 212.412V209.184C395.615 209.111 395.586 209.04 395.534 208.988C395.482 208.935 395.411 208.906 395.337 208.906C395.264 208.907 395.194 208.937 395.142 208.989C395.09 209.041 395.06 209.111 395.059 209.184V212.412L392.198 209.529C392.172 209.503 392.142 209.483 392.108 209.468C392.074 209.454 392.037 209.447 392.001 209.447C391.964 209.447 391.928 209.454 391.894 209.468C391.86 209.483 391.829 209.503 391.803 209.529C391.752 209.582 391.723 209.653 391.723 209.727C391.723 209.801 391.752 209.871 391.803 209.924L394.669 212.785H391.441C391.368 212.786 391.298 212.816 391.246 212.868C391.194 212.92 391.165 212.989 391.163 213.063C391.163 213.137 391.192 213.207 391.245 213.26C391.297 213.312 391.368 213.341 391.441 213.341H394.669L391.803 216.207C391.752 216.26 391.723 216.331 391.723 216.404C391.723 216.478 391.752 216.549 391.803 216.602C391.857 216.652 391.927 216.68 392.001 216.68C392.074 216.68 392.145 216.652 392.198 216.602L395.059 213.736V216.958C395.059 217.032 395.088 217.103 395.14 217.155C395.192 217.207 395.263 217.236 395.337 217.236C395.411 217.236 395.482 217.207 395.534 217.155C395.586 217.103 395.615 217.032 395.615 216.958V213.736L398.481 216.602C398.535 216.652 398.606 216.68 398.679 216.68C398.752 216.68 398.823 216.652 398.876 216.602C398.928 216.549 398.957 216.478 398.957 216.404C398.957 216.331 398.928 216.26 398.876 216.207L396.01 213.341H399.233C399.306 213.341 399.377 213.312 399.429 213.26C399.482 213.207 399.511 213.137 399.511 213.063C399.507 212.992 399.475 212.925 399.424 212.877C399.372 212.828 399.304 212.801 399.233 212.801Z" fill="#809EFF"/>
<path d="M410.92 212.801H407.697L410.563 209.941C410.615 209.888 410.644 209.817 410.644 209.744C410.644 209.67 410.615 209.599 410.563 209.546C410.538 209.52 410.507 209.499 410.473 209.485C410.439 209.471 410.403 209.464 410.366 209.464C410.329 209.464 410.293 209.471 410.259 209.485C410.225 209.499 410.194 209.52 410.168 209.546L407.302 212.412V209.184C407.302 209.111 407.273 209.04 407.221 208.988C407.169 208.935 407.098 208.906 407.024 208.906C406.951 208.907 406.881 208.937 406.829 208.989C406.777 209.041 406.747 209.111 406.746 209.184V212.412L403.885 209.529C403.859 209.503 403.829 209.483 403.795 209.468C403.761 209.454 403.724 209.447 403.688 209.447C403.651 209.447 403.615 209.454 403.581 209.468C403.547 209.483 403.516 209.503 403.49 209.529C403.439 209.582 403.41 209.653 403.41 209.727C403.41 209.801 403.439 209.871 403.49 209.924L406.356 212.785H403.128C403.055 212.786 402.985 212.816 402.933 212.868C402.881 212.92 402.852 212.989 402.85 213.063C402.85 213.137 402.879 213.207 402.932 213.26C402.984 213.312 403.055 213.341 403.128 213.341H406.356L403.49 216.207C403.439 216.26 403.41 216.331 403.41 216.404C403.41 216.478 403.439 216.549 403.49 216.602C403.544 216.652 403.614 216.68 403.688 216.68C403.761 216.68 403.832 216.652 403.885 216.602L406.746 213.736V216.958C406.746 217.032 406.775 217.103 406.827 217.155C406.879 217.207 406.95 217.236 407.024 217.236C407.098 217.236 407.169 217.207 407.221 217.155C407.273 217.103 407.302 217.032 407.302 216.958V213.736L410.168 216.602C410.222 216.652 410.293 216.68 410.366 216.68C410.439 216.68 410.51 216.652 410.563 216.602C410.615 216.549 410.644 216.478 410.644 216.404C410.644 216.331 410.615 216.26 410.563 216.207L407.697 213.341H410.92C410.993 213.341 411.064 213.312 411.116 213.26C411.169 213.207 411.198 213.137 411.198 213.063C411.194 212.992 411.162 212.925 411.111 212.877C411.059 212.828 410.991 212.801 410.92 212.801Z" fill="#809EFF"/>
<path d="M422.607 212.801H419.384L422.25 209.941C422.302 209.888 422.33 209.817 422.33 209.744C422.33 209.67 422.302 209.599 422.25 209.546C422.225 209.52 422.194 209.499 422.16 209.485C422.126 209.471 422.09 209.464 422.053 209.464C422.016 209.464 421.98 209.471 421.946 209.485C421.912 209.499 421.881 209.52 421.855 209.546L418.989 212.412V209.184C418.989 209.111 418.96 209.04 418.908 208.988C418.856 208.935 418.785 208.906 418.711 208.906C418.638 208.907 418.568 208.937 418.516 208.989C418.464 209.041 418.434 209.111 418.433 209.184V212.412L415.572 209.529C415.546 209.503 415.516 209.483 415.482 209.468C415.448 209.454 415.411 209.447 415.375 209.447C415.338 209.447 415.302 209.454 415.268 209.468C415.234 209.483 415.203 209.503 415.177 209.529C415.126 209.582 415.097 209.653 415.097 209.727C415.097 209.801 415.126 209.871 415.177 209.924L418.043 212.785H414.815C414.742 212.786 414.672 212.816 414.62 212.868C414.568 212.92 414.539 212.989 414.537 213.063C414.537 213.137 414.566 213.207 414.619 213.26C414.671 213.312 414.742 213.341 414.815 213.341H418.043L415.177 216.207C415.126 216.26 415.097 216.331 415.097 216.404C415.097 216.478 415.126 216.549 415.177 216.602C415.231 216.652 415.301 216.68 415.375 216.68C415.448 216.68 415.519 216.652 415.572 216.602L418.433 213.736V216.958C418.433 217.032 418.462 217.103 418.514 217.155C418.566 217.207 418.637 217.236 418.711 217.236C418.785 217.236 418.856 217.207 418.908 217.155C418.96 217.103 418.989 217.032 418.989 216.958V213.736L421.855 216.602C421.909 216.652 421.98 216.68 422.053 216.68C422.126 216.68 422.197 216.652 422.25 216.602C422.302 216.549 422.33 216.478 422.33 216.404C422.33 216.331 422.302 216.26 422.25 216.207L419.384 213.341H422.607C422.68 213.341 422.751 213.312 422.803 213.26C422.856 213.207 422.885 213.137 422.885 213.063C422.881 212.992 422.849 212.925 422.798 212.877C422.746 212.828 422.678 212.801 422.607 212.801Z" fill="#809EFF"/>
<path d="M512.201 280.495C512.185 279.822 512.101 279.153 511.951 278.497C511.45 276.616 510.32 274.34 508.461 273.772C506.542 273.185 504.688 272.402 502.929 271.435C502.595 265.47 503.964 259.366 502.473 253.584C501.916 251.47 500.998 249.444 500.753 247.279C500.447 244.586 501.182 241.715 500.108 239.233C499.262 237.274 497.403 235.894 495.405 235.171C493.407 234.447 491.253 234.253 489.133 234.058C486.462 233.841 477.813 232.817 474.797 235.204C474.589 235.366 474.402 235.553 474.241 235.761C474.174 235.853 474.114 235.949 474.062 236.05L474.035 236.095C473.974 236.211 473.924 236.332 473.884 236.456C473.842 236.593 473.811 236.732 473.79 236.874C473.79 236.918 473.79 236.963 473.79 237.007C473.79 237.052 473.79 237.202 473.79 237.302V237.452C473.79 237.553 473.79 237.653 473.79 237.758C473.79 237.864 473.79 237.836 473.79 237.875C473.829 238.376 473.901 238.877 473.901 239.372C473.907 239.619 473.885 239.865 473.834 240.107C473.649 240.763 473.335 241.376 472.91 241.91L472.81 242.054C472.749 242.143 472.688 242.227 472.632 242.316C472.577 242.405 472.532 242.472 472.487 242.55C472.443 242.627 472.398 242.678 472.36 242.75C472.306 242.842 472.257 242.936 472.215 243.034C472.215 243.089 472.154 243.139 472.131 243.195C472.062 243.345 472.006 243.502 471.964 243.662C471.834 244.146 471.823 244.654 471.931 245.143C472.081 245.767 472.339 246.36 472.693 246.895C472.833 247.124 472.983 247.346 473.139 247.569L473.528 248.097C473.455 248.614 473.416 249.134 473.411 249.656C473.412 251.398 473.807 253.118 474.569 254.685C475.331 256.252 476.438 257.626 477.808 258.704C478.028 261.054 478.004 263.42 477.736 265.765C477.685 266.255 477.624 266.75 477.557 267.24C477.491 267.729 477.441 268.052 477.374 268.458C476.559 268.575 475.729 268.512 474.942 268.275C474.578 268.113 474.207 267.97 473.829 267.846C472.209 267.44 470.556 269.054 468.954 268.564C468.954 268.642 468.909 268.714 468.881 268.787C468.547 268.579 468.162 268.465 467.768 268.458C466.817 268.414 466.043 267.724 465.353 267.073L463.233 265.075C463.094 264.953 462.971 264.815 462.865 264.663C462.751 264.447 462.665 264.217 462.609 263.979C462.253 262.827 461.39 261.909 460.556 261.035C460.397 260.836 460.188 260.684 459.949 260.596C459.857 260.582 459.763 260.582 459.671 260.596C459.614 260.518 459.553 260.443 459.487 260.373C459.343 260.208 459.189 260.052 459.025 259.906C458.012 258.971 457.912 258.169 457.033 257.123C456.266 256.125 455.57 255.075 454.951 253.979C454.879 253.395 454.779 252.794 454.657 252.187C454.376 250.799 453.968 249.439 453.438 248.125L452.325 245.66L452.197 245.788C451.39 244.586 450.527 243.93 449.754 244.085C448.457 244.352 447.817 246.868 448.023 250.156L448.468 253.495C448.468 253.579 448.507 253.662 448.529 253.746C448.449 254.141 448.408 254.544 448.407 254.947C448.407 255.415 448.841 255.76 449.069 256.177C449.434 256.743 449.628 257.402 449.626 258.075C449.598 258.314 449.525 258.542 449.514 258.776C449.545 259.299 449.726 259.801 450.037 260.223L452.82 264.897L453.377 265.876L453.41 265.921C453.586 266.263 453.841 266.557 454.156 266.778C454.265 267.948 454.575 269.091 455.074 270.156C455.169 270.367 455.274 270.567 455.386 270.768C456.134 271.997 457.015 273.141 458.012 274.179L459.337 275.664C460.645 277.122 461.953 278.586 463.372 279.933C463.88 280.473 464.493 280.903 465.175 281.196C465.509 281.329 465.872 281.372 466.227 281.32C466.583 281.269 466.919 281.124 467.201 280.901C467.201 281.591 467.201 282.281 467.201 282.971C467.407 282.983 467.607 283.051 467.778 283.167C467.95 283.282 468.088 283.442 468.178 283.628C468.267 283.815 468.305 284.022 468.288 284.228C468.271 284.434 468.199 284.632 468.08 284.802C466.911 287.801 465.731 290.828 463.962 293.516C465.211 294.255 466.369 295.138 467.412 296.148C468.089 296.898 468.691 297.712 469.21 298.579C469.26 298.991 469.299 299.397 469.321 299.804C469.733 306.437 467.167 313.02 464.869 319.341C464.206 321.133 463.483 323.008 463.539 324.872C463.102 325.141 462.686 325.44 462.292 325.768C462.748 326.959 462.57 328.022 462.52 329.296C462.504 330.06 462.347 330.814 462.058 331.522C461.816 332.012 461.549 332.49 461.257 332.952C459.815 335.495 459.498 338.517 459.209 341.421C459.036 343.174 459.715 345.317 458.92 346.886C457.545 349.579 456.326 352.45 456.137 355.444C456.13 356.118 456.044 356.788 455.881 357.442C455.708 357.998 455.402 358.471 455.246 359.017C455.086 359.747 455.048 360.499 455.135 361.242C455.241 363.91 454.845 366.573 453.966 369.094C453.271 371.081 452.503 373.206 453.048 375.248C451.706 376.659 450.876 378.479 450.694 380.418C450.68 380.914 450.62 381.408 450.516 381.893C450.346 382.389 450.122 382.864 449.848 383.312C448.728 385.352 448.203 387.665 448.334 389.989C446.665 392.254 445.83 395.047 445.335 397.824C444.839 400.601 444.622 403.428 443.988 406.171C443.142 409.799 441.612 413.466 441.311 417.183C439.508 418.335 438.729 420.567 438.384 422.676C438.039 424.785 437.983 426.999 437.098 428.947C436.642 429.96 435.985 430.867 435.551 431.902C435.247 432.726 435.023 433.577 434.883 434.445C434.616 435.802 434.382 437.316 434.711 438.618C434.239 439.118 433.688 439.537 433.08 439.859C433.169 439.514 433.242 439.169 433.303 438.818C431.867 440.121 429.262 439.664 428.116 441.228C427.772 441.732 427.637 442.35 427.741 442.952C427.845 443.553 428.179 444.09 428.672 444.45C429.031 444.668 429.419 444.835 429.824 444.945C432.607 445.835 435.468 446.731 438.328 446.258C438.666 446.222 438.994 446.118 439.291 445.952C439.663 445.678 439.969 445.325 440.187 444.917C440.615 444.238 441.044 443.559 441.467 442.881C442.492 443.186 443.535 443.43 444.589 443.61C444.695 444.5 444.773 445.39 444.812 446.281C445.368 446.392 446.114 446.425 446.375 445.908C446.455 445.712 446.487 445.5 446.47 445.29C446.47 444.895 446.526 444.372 446.559 443.838H446.67C448.368 443.906 450.058 443.565 451.596 442.842C451 437.911 452.965 433.092 454.668 428.429C456.465 423.521 458.007 418.524 459.559 413.527C460.673 410.01 461.902 406.605 462.993 403.083C464.366 398.631 465.744 394.179 467.128 389.728C467.729 387.769 468.336 385.832 469.026 383.885C470.479 379.944 472.202 376.108 474.185 372.405C474.741 371.353 475.298 370.313 475.754 369.222C476.311 367.892 476.706 366.501 477.151 365.126C478.121 362.306 479.289 359.558 480.646 356.902C480.685 356.83 480.713 356.763 480.752 356.696C481.203 358.538 481.653 360.408 481.954 362.261C482.361 364.533 482.393 366.856 482.049 369.139C481.781 370.691 481.275 372.227 481.336 373.802C481.42 375.977 482.583 377.953 483.156 380.051C483.526 381.621 483.734 383.224 483.779 384.836C483.935 387.34 485.293 390.15 484.336 392.471C481.358 399.822 482.8 408.124 481.102 415.842C480.229 419.804 477.552 423.527 477.763 427.578C477.912 430.453 478.164 433.321 478.52 436.181C478.606 437.083 478.841 437.965 479.216 438.791C479.438 439.225 479.693 439.642 479.978 440.037C479.733 440.132 479.528 440.382 479.349 440.911C478.893 442.302 479.349 444.027 480.585 444.806C481.088 445.075 481.631 445.263 482.193 445.362C482.95 445.577 483.733 445.686 484.52 445.685C484.764 445.672 485.008 445.642 485.249 445.596C486.109 445.958 486.987 446.273 487.881 446.542C487.881 446.77 487.925 446.998 487.953 447.227C487.955 447.346 487.981 447.463 488.031 447.572C488.081 447.68 488.153 447.777 488.243 447.855C488.382 447.92 488.535 447.947 488.688 447.933H491.71C491.71 447.683 491.71 447.427 491.71 447.176C492.056 447.212 492.405 447.176 492.736 447.068C493.067 446.961 493.371 446.785 493.63 446.553C493.897 446.213 494.087 445.818 494.186 445.396C495.01 442.602 495.828 439.807 496.641 437.01C497.615 433.918 498.02 430.675 497.837 427.439C496.763 417.183 499.123 406.894 498.355 396.611C497.892 390.43 498.21 384.216 499.301 378.114C499.551 376.734 499.857 375.332 499.969 373.957C500.213 371.364 499.913 368.743 500.097 366.167C500.158 365.266 500.28 364.37 500.392 363.474C501.154 357.913 501.554 352.309 501.588 346.697C501.571 344.837 501.456 342.979 501.243 341.132C501.823 340.984 502.35 340.676 502.762 340.242C503.258 339.596 503.13 338.689 503.124 337.866C503.124 335.896 503.953 334.037 504.621 332.178C505.478 329.615 506.181 327.002 506.725 324.355C507.3 322.221 507.614 320.026 507.66 317.816C507.66 317.594 507.649 317.371 507.626 317.149C507.836 317.003 508.011 316.813 508.138 316.592C508.284 316.266 508.374 315.918 508.405 315.563C508.606 314.144 508.812 312.719 509.012 311.295C509.16 310.274 509.307 309.256 509.452 308.24L511.221 295.892C511.372 294.818 511.528 293.749 511.678 292.681L512.14 289.487C512.19 289.109 512.245 288.73 512.284 288.374C513.642 286.104 512.346 283.077 512.201 280.495ZM497.436 326.725C496.78 325.167 496.168 323.57 496.323 321.89H496.262C496.409 321.372 496.383 320.822 496.19 320.32C496.017 319.914 495.717 319.569 495.533 319.163C495.336 318.667 495.234 318.138 495.233 317.605C495.094 314.22 495.362 310.832 496.028 307.511C496.101 307.121 496.179 306.726 496.251 306.336C496.484 306.202 496.698 306.035 496.885 305.841C497.178 305.508 497.42 305.133 497.603 304.728C498.232 303.465 498.805 302.18 499.334 300.872C499.507 300.449 499.757 299.959 500.186 299.854C500.097 303.109 500.431 306.431 499.106 309.369C498.854 309.843 498.667 310.348 498.549 310.872C498.427 311.701 498.772 312.541 498.65 313.365C498.588 313.793 498.405 314.188 498.332 314.611C498.277 314.819 498.278 315.037 498.335 315.244C498.392 315.451 498.502 315.64 498.655 315.791C498.729 315.842 498.809 315.884 498.895 315.913C498.861 316.136 498.833 316.364 498.811 316.581C498.767 317.037 498.744 317.466 498.716 317.733C498.588 319.094 498.538 320.461 498.566 321.828C498.566 323.303 498.622 324.778 498.6 326.28C498.62 326.711 498.548 327.142 498.388 327.543C498.278 327.75 498.135 327.938 497.965 328.1C497.804 327.599 497.626 327.159 497.436 326.725Z" fill="url(#paint0_linear_2782_346668)"/>
<path d="M453.506 262.159C455.204 261.811 455.782 257.631 454.797 252.823C453.811 248.015 451.636 244.399 449.938 244.747C448.239 245.095 447.662 249.275 448.647 254.083C449.632 258.891 451.808 262.507 453.506 262.159Z" fill="#FBA9A9"/>
<path d="M479.439 441.016C478.983 442.396 479.439 444.121 480.674 444.873C481.175 445.139 481.714 445.327 482.272 445.429C483.027 445.642 483.808 445.749 484.592 445.746C485.555 445.702 486.479 445.323 487.442 445.19C487.553 445.162 487.67 445.178 487.77 445.234C487.818 445.286 487.854 445.348 487.875 445.415C487.897 445.483 487.902 445.554 487.893 445.624C487.903 446.171 487.944 446.717 488.015 447.26C488.016 447.379 488.042 447.497 488.092 447.605C488.142 447.714 488.214 447.81 488.304 447.889C488.443 447.953 488.597 447.98 488.75 447.967H491.766C491.834 445.317 491.544 442.67 490.903 440.098C490.861 439.901 490.786 439.713 490.681 439.542C490.425 439.262 490.088 439.067 489.718 438.985C488.98 438.679 488.184 438.54 487.386 438.579C486.412 438.707 485.6 439.336 484.77 439.859C483.941 440.382 482.811 440.844 481.804 440.577C480.797 440.31 479.956 439.469 479.439 441.016Z" fill="#34303E"/>
<path d="M435.151 438.573C434.303 439.481 433.263 440.189 432.106 440.644L431.594 440.888C431.524 440.915 431.463 440.964 431.422 441.027C431.412 441.071 431.412 441.116 431.422 441.159C431.431 441.202 431.45 441.243 431.478 441.278C431.904 441.937 432.533 442.438 433.271 442.707C434.008 442.975 434.813 442.995 435.562 442.764C435.894 442.681 436.201 442.52 436.458 442.296C436.883 441.793 437.126 441.162 437.149 440.504C437.317 439.826 437.288 439.114 437.065 438.451C436.292 436.709 436.008 437.5 435.151 438.573Z" fill="#FBA9A9"/>
<path d="M446.715 445.429C446.732 445.64 446.7 445.851 446.621 446.047C446.359 446.559 445.63 446.531 445.062 446.42C444.976 444.532 444.747 442.653 444.378 440.799C443.298 440.749 442.519 441.773 441.94 442.691L440.449 445.056C440.233 445.464 439.929 445.817 439.558 446.091C439.26 446.254 438.933 446.358 438.596 446.397C435.746 446.87 432.869 445.974 430.12 445.084C429.715 444.975 429.327 444.811 428.968 444.594C428.477 444.234 428.145 443.698 428.041 443.098C427.938 442.499 428.07 441.882 428.411 441.378C429.563 439.82 432.151 440.265 433.587 438.974C433.437 439.883 433.191 440.772 432.852 441.629C434.772 441.339 436.063 439.581 437.61 438.407C437.999 438.077 438.467 437.854 438.968 437.761C439.343 437.73 439.721 437.769 440.081 437.878C441.865 438.327 443.534 439.148 444.979 440.287C445.563 440.749 446.476 441.4 446.732 442.113C447.005 442.964 446.715 444.522 446.715 445.429Z" fill="#34303E"/>
<path d="M484.998 261.831C491.348 261.831 496.496 256.684 496.496 250.334C496.496 243.985 491.348 238.838 484.998 238.838C478.648 238.838 473.5 243.985 473.5 250.334C473.5 256.684 478.648 261.831 484.998 261.831Z" fill="#FBA9A9"/>
<path d="M507.649 318.211C507.602 320.409 507.29 322.593 506.719 324.716C506.175 327.353 505.473 329.955 504.616 332.507C503.953 334.36 503.124 336.218 503.13 338.183C503.13 339.001 503.263 339.908 502.762 340.553C502.316 341.006 501.754 341.328 501.137 341.483C500.83 341.564 500.545 341.717 500.308 341.929C500.07 342.14 499.885 342.405 499.768 342.701C499.246 341.921 498.855 341.06 498.611 340.153C497.613 337.096 496.685 334.022 495.828 330.932C495.75 330.754 495.716 330.56 495.729 330.366C495.743 330.172 495.804 329.984 495.906 329.819C496.047 329.696 496.212 329.604 496.39 329.546C496.961 329.314 497.483 328.978 497.932 328.556C498.142 328.369 498.316 328.145 498.444 327.894C498.606 327.495 498.68 327.066 498.661 326.636C498.661 325.162 498.661 323.693 498.622 322.218C498.599 320.856 498.651 319.495 498.778 318.139C498.778 317.872 498.828 317.443 498.872 316.987C498.956 316.114 499.123 315.101 499.596 314.761C500.303 314.288 502.417 314.923 503.219 315.034C504.599 315.223 506.001 315.446 507.348 315.707C507.544 316.528 507.645 317.368 507.649 318.211Z" fill="#34303E"/>
<path d="M461.224 263.205C460.779 264.096 459.71 264.524 458.887 265.086L456.065 267.023C455.877 267.192 455.656 267.322 455.416 267.405C455.176 267.487 454.921 267.52 454.668 267.501C454.439 267.416 454.228 267.287 454.05 267.119C453.871 266.952 453.727 266.751 453.628 266.527C453.629 266.513 453.629 266.498 453.628 266.483L453.043 265.503L450.261 260.84C449.951 260.423 449.771 259.924 449.743 259.405C449.743 259.165 449.826 258.943 449.849 258.704C449.856 258.031 449.662 257.373 449.292 256.812C449.07 256.394 448.624 256.049 448.635 255.582C448.614 254.968 448.72 254.356 448.947 253.784C449.239 253.256 449.658 252.809 450.166 252.482C450.427 252.293 450.695 252.115 450.973 251.926C451.121 251.825 451.284 251.75 451.457 251.703C451.919 251.609 452.375 251.993 452.843 252.009C454.852 253.356 455.625 255.905 457.206 257.741C458.096 258.787 458.185 259.588 459.193 260.523C459.354 260.668 459.51 260.824 459.66 260.985C459.859 261.202 460.028 261.446 460.161 261.708C460.345 262.187 461.452 262.749 461.224 263.205Z" fill="#34303E"/>
<path d="M480.958 261.836C481.787 263.589 482.433 265.515 482.193 267.44C482.144 267.962 481.979 268.465 481.709 268.915C480.908 270.144 479.227 270.367 477.764 270.439C477.455 270.413 477.145 270.449 476.85 270.545C476.556 270.64 476.284 270.794 476.049 270.996C475.854 271.28 475.758 271.621 475.777 271.965C475.796 272.31 475.929 272.638 476.155 272.899C476.626 273.401 477.21 273.782 477.858 274.012C480.173 275.03 482.672 275.87 485.187 275.637C486.356 275.525 487.492 275.186 488.655 275.013C489.923 274.876 491.197 274.806 492.472 274.802C493.986 274.746 495.494 274.596 497.002 274.446L500.998 274.051C501.217 274.054 501.429 273.977 501.594 273.834C501.889 273.489 501.51 272.982 501.143 272.721C499.023 271.152 496.324 270.072 495.116 267.713C494.559 266.6 494.387 265.275 493.975 264.073C493.563 262.871 492.906 261.786 492.65 260.562C492.514 259.488 492.453 258.406 492.467 257.324C492.481 256.232 492.083 255.175 491.354 254.363C490.558 253.623 489.406 253.434 488.326 253.389C485.666 253.273 482.833 253.907 480.947 255.782C480.44 256.289 480.006 256.895 479.483 257.351C478.96 257.808 478.248 257.941 478.593 258.542C478.938 259.143 479.617 259.516 479.984 260.045C480.356 260.615 480.681 261.214 480.958 261.836Z" fill="#FBA9A9"/>
<path d="M503.625 278.024C502.923 282.309 501.782 286.51 500.219 290.561C499.434 292.39 498.764 294.267 498.216 296.181C497.787 297.906 497.871 299.754 497.476 301.484C496.986 303.638 496.496 305.797 496.101 307.967C495.438 311.281 495.173 314.662 495.311 318.039C495.312 318.571 495.414 319.097 495.611 319.591C495.795 319.992 496.09 320.337 496.262 320.749C496.391 321.11 496.444 321.495 496.417 321.878C496.391 322.261 496.285 322.634 496.107 322.975C495.821 323.612 495.434 324.198 494.96 324.711C489.773 326.258 484.225 325.751 478.821 326.08C473.84 326.38 468.804 327.404 463.895 326.553C463.339 324.327 464.268 321.995 465.064 319.825C467.373 313.52 469.928 306.954 469.516 300.349C469.473 299.579 469.385 298.811 469.254 298.051C468.447 293.371 469.327 288.524 470.735 283.989C471.609 281.162 471.57 278.152 471.369 275.208C471.27 274.252 471.257 273.289 471.33 272.331C471.411 271.353 471.774 270.419 472.377 269.644C472.377 269.605 472.427 269.566 472.454 269.527C472.482 269.488 472.699 269.493 472.872 269.527C472.916 269.545 472.963 269.555 473.011 269.555C473.059 269.555 473.106 269.545 473.15 269.527L473.211 269.488C473.235 269.471 473.263 269.462 473.292 269.462C473.321 269.462 473.349 269.471 473.373 269.488C473.501 269.566 473.573 269.833 473.851 269.883C474.262 269.945 474.677 269.984 475.092 270C475.592 270.015 476.089 270.085 476.573 270.211H476.639C477.363 270.333 478.106 270.27 478.799 270.027C479.26 269.912 479.705 269.74 480.123 269.516C480.246 269.382 481.014 269.26 481.17 269.165C481.676 268.859 481.565 267.423 481.67 266.833C481.729 266.242 481.869 265.661 482.088 265.108C482.341 264.7 482.691 264.361 483.106 264.119C483.522 263.878 483.99 263.741 484.47 263.723C485.428 263.7 486.386 263.786 487.325 263.979C489.401 264.274 491.526 264.224 493.563 264.702C494.587 264.941 495.706 265.303 496.646 264.836C496.902 264.897 496.941 265.12 496.941 265.392C496.917 265.651 496.865 265.907 496.786 266.155C496.429 267.69 497.637 269.104 498.75 270.217C499.22 270.741 499.775 271.183 500.392 271.524C500.948 271.78 501.505 271.886 502.061 272.164C502.512 272.405 502.895 272.755 503.174 273.183C503.495 273.673 503.711 274.224 503.809 274.802C503.928 275.879 503.866 276.968 503.625 278.024Z" fill="#34303E"/>
<path opacity="0.1" d="M503.625 278.024C502.923 282.309 501.782 286.51 500.219 290.561C499.433 292.39 498.764 294.267 498.215 296.181C497.787 297.906 497.87 299.754 497.475 301.484C496.986 303.638 496.496 305.797 496.101 307.967C495.984 308.034 495.861 308.095 495.739 308.151C495.047 308.481 494.313 308.717 493.557 308.852C492.201 309.016 490.827 308.971 489.484 308.718L481.542 307.655C478.37 307.227 474.992 306.709 472.638 304.561C471.33 303.382 470.473 301.824 469.532 300.321C469.489 299.551 469.402 298.783 469.271 298.023C468.464 293.343 469.343 288.496 470.751 283.961C471.625 281.135 471.586 278.124 471.386 275.18C471.286 274.225 471.273 273.262 471.347 272.303C471.427 271.325 471.791 270.391 472.393 269.616C472.555 269.568 472.721 269.531 472.888 269.505C473 269.482 473.114 269.467 473.228 269.46H473.389C473.576 269.461 473.763 269.483 473.946 269.527C474.325 269.647 474.696 269.791 475.059 269.955H475.125C475.602 270.112 476.104 270.184 476.606 270.167C477.34 270.167 478.097 270.05 478.832 270C479.739 269.858 480.668 270.025 481.47 270.473C481.987 270.889 482.478 271.336 482.939 271.814C483.496 272.251 484.122 272.592 484.792 272.821C489.583 274.649 494.897 274.538 499.607 272.509C500.059 272.252 500.572 272.122 501.093 272.131C501.477 272.206 501.841 272.362 502.161 272.587C502.495 272.782 502.823 272.971 503.163 273.144C503.484 273.634 503.7 274.185 503.797 274.763C503.925 275.852 503.867 276.955 503.625 278.024Z" fill="black"/>
<path d="M508.472 274.34C506.256 273.663 504.127 272.73 502.128 271.558C501.807 271.334 501.443 271.179 501.059 271.102C500.538 271.095 500.023 271.226 499.568 271.48C494.86 273.508 489.547 273.62 484.759 271.792C484.09 271.56 483.464 271.22 482.906 270.784C482.443 270.308 481.952 269.861 481.436 269.443C479.605 268.258 477.073 269.649 475.025 268.887C474.662 268.725 474.29 268.582 473.912 268.458C472.293 268.052 470.645 269.666 469.054 269.176C468.461 270.786 468.024 272.448 467.746 274.14C467.519 276.083 467.399 278.037 467.384 279.994C467.384 281.168 467.328 282.342 467.384 283.516C467.58 283.548 467.768 283.621 467.934 283.729C468.101 283.837 468.243 283.979 468.352 284.145C468.425 284.339 468.455 284.546 468.44 284.753C468.425 284.96 468.364 285.16 468.263 285.341C467.1 288.33 465.92 291.351 464.156 294.028C465.4 294.768 466.554 295.65 467.596 296.654C469.543 298.713 470.501 301.601 472.604 303.504C474.975 305.647 478.353 306.17 481.509 306.593L489.45 307.655C490.795 307.907 492.171 307.954 493.53 307.795C494.283 307.657 495.015 307.419 495.706 307.088C496.157 306.899 496.568 306.627 496.919 306.286C497.212 305.953 497.454 305.578 497.637 305.174C498.266 303.916 498.839 302.631 499.367 301.328C499.551 300.867 499.829 300.327 500.33 300.288C503.28 297.628 506.062 294.901 509.012 292.241C510.197 291.259 511.26 290.138 512.179 288.903C513.642 286.738 512.312 283.672 512.179 281.057C512.162 280.388 512.079 279.722 511.928 279.07C511.45 277.172 510.325 274.902 508.472 274.34Z" fill="#809EFF"/>
<path opacity="0.1" d="M461.224 263.205C460.779 264.096 459.71 264.524 458.886 265.086L456.065 267.023C455.876 267.193 455.655 267.323 455.415 267.405C455.175 267.487 454.921 267.52 454.668 267.501C454.438 267.416 454.228 267.287 454.049 267.119C453.871 266.952 453.727 266.751 453.627 266.527C453.627 266.399 453.627 266.26 453.627 266.127C453.606 265.676 453.666 265.226 453.805 264.797C454.082 264.168 454.51 263.617 455.052 263.194C456.1 262.202 457.346 261.444 458.708 260.968C458.921 260.886 459.152 260.863 459.376 260.902C459.463 260.924 459.545 260.96 459.621 261.007C459.82 261.225 459.989 261.468 460.122 261.731C460.345 262.187 461.452 262.749 461.224 263.205Z" fill="black"/>
<path d="M467.869 269.07C466.923 269.026 466.149 268.342 465.459 267.69L463.35 265.732C463.209 265.612 463.085 265.474 462.983 265.32C462.869 265.104 462.783 264.874 462.726 264.635C462.279 263.511 461.578 262.506 460.679 261.697C460.522 261.498 460.311 261.347 460.072 261.263C459.846 261.222 459.612 261.245 459.399 261.33C458.036 261.805 456.789 262.563 455.742 263.556C455.201 263.979 454.772 264.53 454.496 265.159C454.356 265.587 454.295 266.038 454.317 266.488C454.331 267.959 454.661 269.409 455.286 270.74C455.38 270.946 455.486 271.152 455.597 271.352C456.34 272.579 457.217 273.719 458.213 274.752L459.538 276.232C460.84 277.69 462.142 279.148 463.556 280.489C464.062 281.029 464.677 281.458 465.359 281.747C465.701 281.886 466.076 281.929 466.441 281.87C466.806 281.811 467.148 281.653 467.429 281.413C467.696 281.104 467.896 280.744 468.019 280.355C468.876 278.13 469.689 275.815 469.739 273.416C469.751 272.456 469.71 271.496 469.616 270.54C469.533 269.527 468.815 269.132 467.869 269.07Z" fill="#809EFF"/>
<path d="M501.594 346.975C501.562 352.572 501.164 358.162 500.403 363.707C500.292 364.603 500.169 365.499 500.108 366.395C499.924 368.994 500.225 371.604 499.98 374.186C499.852 375.582 499.562 376.968 499.318 378.331C498.23 384.416 497.912 390.614 498.372 396.778C499.14 407.033 496.785 417.295 497.854 427.522C497.983 429.511 497.873 431.508 497.526 433.471C497.326 434.689 497.038 435.89 496.663 437.066C495.85 439.852 495.034 442.634 494.214 445.412C494.118 445.835 493.928 446.231 493.658 446.57C493.374 446.815 493.041 446.997 492.681 447.104C492.321 447.21 491.943 447.239 491.571 447.188C488.36 447.087 485.338 445.702 482.422 444.35C482.086 444.217 481.776 444.029 481.503 443.793C480.897 443.164 480.947 442.174 480.68 441.345C480.413 440.516 479.689 439.737 479.277 438.885C478.939 438.08 478.734 437.225 478.671 436.353C478.3 433.504 478.047 430.644 477.914 427.773C477.702 423.733 480.374 420.016 481.253 416.087C482.922 408.363 481.509 400.083 484.475 392.755C485.41 390.44 484.052 387.635 483.919 385.142C483.871 383.534 483.662 381.935 483.295 380.368C482.739 378.276 481.565 376.306 481.481 374.136C481.42 372.566 481.926 371.036 482.188 369.489C482.535 367.213 482.503 364.894 482.093 362.628C481.798 360.758 481.348 358.889 480.897 357.063L480.797 357.269C479.441 359.919 478.275 362.662 477.307 365.477C476.862 366.84 476.472 368.232 475.916 369.556C475.46 370.669 474.897 371.687 474.346 372.733C472.37 376.422 470.65 380.243 469.199 384.169C468.509 386.094 467.902 388.064 467.301 389.995L463.177 403.35C462.064 406.861 460.845 410.255 459.754 413.761C458.213 418.769 456.671 423.733 454.879 428.63C453.21 433.276 451.223 438.089 451.818 442.997C450.284 443.719 448.599 444.06 446.904 443.993C444.036 443.74 441.222 443.057 438.556 441.968C437.494 441.573 436.392 441.128 435.674 440.254C434.438 438.746 434.744 436.537 435.117 434.617C435.258 433.752 435.481 432.902 435.785 432.08C436.208 431.056 436.898 430.149 437.332 429.136C438.206 427.194 438.262 424.996 438.607 422.887C438.952 420.778 439.72 418.552 441.523 417.406C441.829 413.7 443.354 410.044 444.194 406.421C444.829 403.678 445.04 400.857 445.541 398.074C446.042 395.292 446.849 392.51 448.529 390.256C448.397 387.932 448.921 385.618 450.043 383.579C450.314 383.131 450.536 382.655 450.705 382.16C450.809 381.676 450.869 381.185 450.883 380.691C451.067 378.757 451.894 376.941 453.232 375.532C452.675 373.501 453.449 371.381 454.145 369.411C455.021 366.898 455.417 364.242 455.313 361.582C455.227 360.839 455.263 360.087 455.419 359.356C455.575 358.8 455.881 358.327 456.059 357.792C456.218 357.138 456.302 356.468 456.31 355.795C456.527 352.784 457.745 349.946 459.092 347.259C459.894 345.689 459.215 343.558 459.382 341.811C459.671 338.906 459.988 335.901 461.43 333.369C461.697 332.891 461.986 332.434 462.225 331.939C462.515 331.232 462.672 330.477 462.687 329.713C462.737 328.439 462.915 327.382 462.459 326.197C465.437 323.72 469.499 323.025 473.373 322.858C477.246 322.691 481.164 323.041 484.954 322.218C486.067 321.967 487.18 321.622 488.354 321.456C491.02 321.066 493.725 321.673 496.357 322.274C496.173 323.943 496.785 325.546 497.47 327.098C500.142 333.387 501.544 340.142 501.594 346.975Z" fill="#0F0D15"/>
<path opacity="0.1" d="M488.488 348.249L482.094 362.628C481.799 360.758 481.348 358.888 480.897 357.063L480.797 357.269V356.969L484.281 349.306L488.488 348.249Z" fill="black"/>
<path opacity="0.1" d="M507.649 318.211C507.28 318.487 506.839 318.652 506.38 318.684C505.675 318.709 504.971 318.613 504.299 318.401L499.29 317.149C499.133 317.11 498.98 317.056 498.833 316.987C498.917 316.114 499.084 315.101 499.557 314.761C500.264 314.288 502.379 314.923 503.18 315.034C504.56 315.223 505.963 315.446 507.309 315.707C507.518 316.526 507.632 317.366 507.649 318.211Z" fill="black"/>
<path d="M511.884 285.102C511.989 285.564 512.14 286.02 512.229 286.488C512.378 287.634 512.339 288.798 512.112 289.932L511.655 293.115L511.199 296.315L509.435 308.629L509.001 311.678L508.389 315.935C508.36 316.29 508.269 316.636 508.122 316.959C507.939 317.262 507.685 317.514 507.381 317.694C507.077 317.874 506.733 317.975 506.38 317.989C505.675 318.011 504.971 317.915 504.298 317.705L499.29 316.447C499.07 316.408 498.861 316.323 498.677 316.197C498.524 316.047 498.414 315.86 498.357 315.654C498.3 315.447 498.3 315.23 498.355 315.023C498.427 314.6 498.611 314.205 498.672 313.782C498.794 312.958 498.449 312.113 498.572 311.295C498.692 310.774 498.879 310.27 499.128 309.798C500.798 306.108 499.829 301.801 500.397 297.795C500.908 294.642 502.24 291.678 504.259 289.203C505.505 287.641 506.937 286.236 508.522 285.018C509.146 284.534 510.136 283.538 510.921 283.349C511.928 283.138 511.717 284.401 511.884 285.102Z" fill="#809EFF"/>
<path d="M473.979 237.169C473.612 238.337 474.185 239.623 473.924 240.813C473.64 242.127 472.405 243.039 472.054 244.358C471.497 246.367 473.2 248.198 474.447 249.867C479.066 256.066 478.459 264.647 476.879 272.209C475.607 278.276 473.848 284.231 471.62 290.016C470.924 291.813 470.156 293.638 468.787 294.985C471.347 294.25 474.068 293.51 476.634 294.222C479.884 295.124 482.689 298.279 485.984 297.561C487.965 297.122 489.356 295.363 491.137 294.389C494.476 292.592 498.5 293.722 502.223 294.3C503.025 294.49 503.865 294.447 504.644 294.178C505.239 293.858 505.745 293.393 506.113 292.826C507.775 290.694 508.77 288.12 508.974 285.425C509.062 284.083 508.864 282.738 508.393 281.478C507.921 280.218 507.188 279.073 506.241 278.118C505.451 277.373 504.505 276.772 503.898 275.893C503.308 274.866 502.992 273.705 502.98 272.52C502.54 266.399 504.032 260.15 502.496 254.23C501.939 252.121 501.032 250.101 500.787 247.942C500.481 245.254 501.21 242.377 500.142 239.917C499.301 237.964 497.448 236.579 495.45 235.866C493.452 235.154 491.315 234.954 489.195 234.754C486.145 234.498 475.254 233.19 473.979 237.169Z" fill="#0F0D15"/>
<g opacity="0.1">
<path opacity="0.1" d="M476.879 272.209C475.614 278.251 473.864 284.182 471.648 289.943C472.032 289.181 472.355 288.38 472.661 287.584C474.892 281.8 476.651 275.845 477.92 269.777C479.506 262.209 480.113 253.64 475.493 247.435C474.38 245.955 472.95 244.352 473 242.616C472.589 243.141 472.269 243.732 472.054 244.364C471.498 246.372 473.201 248.203 474.447 249.873C479.066 256.066 478.46 264.647 476.879 272.209Z" fill="black"/>
<path opacity="0.1" d="M473.991 240.251C474.438 239.697 474.77 239.06 474.97 238.376C475.056 237.55 475.034 236.715 474.904 235.894C474.475 236.217 474.153 236.661 473.98 237.169C473.651 238.154 474.03 239.222 473.991 240.251Z" fill="black"/>
<path opacity="0.1" d="M507.159 290.377C506.791 290.943 506.285 291.406 505.69 291.724C504.912 291.999 504.071 292.041 503.269 291.846C499.546 291.29 495.478 290.144 492.183 291.941C490.397 292.909 489.011 294.668 487.024 295.113C483.735 295.847 480.93 292.692 477.68 291.774C475.376 291.134 472.95 291.663 470.629 292.33C470.168 293.314 469.545 294.213 468.787 294.99C471.347 294.256 474.068 293.516 476.634 294.228C479.884 295.13 482.689 298.285 485.984 297.567C487.965 297.127 489.356 295.369 491.137 294.395C494.476 292.598 498.5 293.727 502.223 294.306C503.025 294.495 503.865 294.453 504.644 294.184C505.239 293.863 505.745 293.398 506.113 292.831C507.122 291.501 507.9 290.011 508.417 288.424C508.045 289.105 507.625 289.757 507.159 290.377Z" fill="black"/>
</g>
</g>
<defs>
<linearGradient id="paint0_linear_2782_346668" x1="427.743" y1="340.787" x2="512.891" y2="340.787" gradientUnits="userSpaceOnUse">
<stop stop-color="#808080" stop-opacity="0.25"/>
<stop offset="0.54" stop-color="#808080" stop-opacity="0.12"/>
<stop offset="1" stop-color="#808080" stop-opacity="0.1"/>
</linearGradient>
<clipPath id="clip0_2782_346668">
<rect width="649" height="448" fill="white"/>
</clipPath>
</defs>
</svg>
