<svg width="577" height="494" viewBox="0 0 577 494" fill="none" xmlns="http://www.w3.org/2000/svg">
<g clip-path="url(#clip0_2782_346329)">
<path d="M169.672 488.6C178.927 480.78 184.548 468.427 183.074 456.401C181.6 444.375 172.469 433.319 160.625 430.765C148.781 428.212 135.28 435.281 131.683 446.851C129.703 424.545 127.422 401.304 115.562 382.308C104.824 365.108 86.225 352.801 66.068 350.599C45.9109 348.397 24.6881 356.713 12.1169 372.623C-0.454322 388.533 -3.53233 411.662 5.27223 429.928C11.7582 443.383 23.7077 453.397 36.2279 461.544C76.6848 487.648 125.208 498.263 172.869 491.437" fill="#E8E8EA"/>
<path d="M32.05 357.174C48.6821 370.721 63.9402 385.873 77.6038 402.409C98.9872 428.2 116.291 457.116 128.912 488.15C129.836 490.414 126.16 491.4 125.246 489.161C117.22 469.54 107.29 450.752 95.5989 433.068C77.3678 405.442 55.0322 380.757 29.3616 359.863C27.4636 358.317 30.1676 355.641 32.05 357.174V357.174Z" fill="white"/>
<path d="M176.065 488.6C166.81 480.78 161.189 468.427 162.663 456.401C164.137 444.375 173.268 433.319 185.112 430.765C196.956 428.212 210.457 435.281 214.054 446.851C216.034 424.545 218.316 401.304 230.175 382.308C240.913 365.108 259.512 352.801 279.669 350.599C299.826 348.397 321.049 356.713 333.62 372.623C346.191 388.533 349.269 411.662 340.465 429.928C333.979 443.383 322.029 453.397 309.509 461.544C269.052 487.648 220.529 498.263 172.869 491.437" fill="#E8E8EA"/>
<path d="M313.687 357.174C297.055 370.721 281.797 385.873 268.133 402.409C246.75 428.2 229.446 457.116 216.825 488.15C215.901 490.414 219.578 491.4 220.491 489.161C241.142 438.724 274.108 394.269 316.376 359.863C318.274 358.317 315.57 355.641 313.687 357.174V357.174Z" fill="white"/>
<path d="M203.527 222.25C220.648 222.25 234.527 208.371 234.527 191.25C234.527 174.129 220.648 160.25 203.527 160.25C186.407 160.25 172.527 174.129 172.527 191.25C172.527 208.371 186.407 222.25 203.527 222.25Z" fill="#E8E8EA"/>
<path d="M107.946 84.3877H321.527V96.073H135.211C124.257 96.073 113.409 98.2306 103.289 102.423C93.1678 106.615 83.9718 112.759 76.2256 120.506C68.4795 128.252 62.3349 137.448 58.1428 147.569C53.9506 157.689 51.7929 168.537 51.7929 179.491V312.25H28.4224C27.3894 312.25 26.3987 311.84 25.6682 311.109C24.9377 310.379 24.5274 309.388 24.5273 308.355V167.806C24.5273 156.851 26.685 146.004 30.8772 135.883C35.0694 125.762 41.2139 116.566 48.9601 108.82C56.7062 101.074 65.9022 94.9296 76.023 90.7375C86.1438 86.5453 96.9912 84.3877 107.946 84.3877Z" fill="#E8E8EA"/>
<path d="M149.027 489.25V311.75H201.027V489.25C201.026 490.443 200.551 491.587 199.708 492.43C198.864 493.274 197.72 493.749 196.527 493.75H153.527C152.334 493.749 151.19 493.274 150.347 492.43C149.503 491.587 149.029 490.443 149.027 489.25Z" fill="#4A4754"/>
<path d="M13.5273 308.25V163.916C13.5533 140.938 22.6924 118.91 38.9397 102.662C55.1869 86.4152 77.2155 77.276 100.193 77.25H320.527V313.25H18.5273C17.2017 313.248 15.9309 312.721 14.9935 311.784C14.0561 310.847 13.5289 309.576 13.5273 308.25ZM318.527 79.25H100.193C77.7458 79.2754 56.2256 88.2037 40.3532 104.076C24.4809 119.948 15.5527 141.469 15.5273 163.916V308.25C15.5282 309.045 15.8446 309.808 16.407 310.37C16.9694 310.933 17.732 311.249 18.5273 311.25H318.527V79.25Z" fill="#4A4754"/>
<path d="M203.527 207.25C198.755 207.245 194.18 205.346 190.805 201.972C187.431 198.597 185.533 194.022 185.527 189.25V60.25C185.526 59.4546 185.21 58.6921 184.648 58.1296C184.085 57.5672 183.323 57.2509 182.527 57.25H112.527C111.202 57.2485 109.931 56.7212 108.994 55.7838C108.056 54.8465 107.529 53.5756 107.527 52.25V5.25C107.529 3.92439 108.056 2.65351 108.994 1.71616C109.931 0.778807 111.202 0.251535 112.527 0.25H216.527C217.853 0.251517 219.124 0.778787 220.061 1.71614C220.999 2.65349 221.526 3.92438 221.527 5.25V189.25C221.522 194.022 219.624 198.597 216.249 201.972C212.875 205.346 208.3 207.245 203.527 207.25Z" fill="#809EFF"/>
<path d="M328.527 75.25C343.613 75.2184 358.093 81.1808 368.783 91.8257C379.473 102.47 385.496 116.926 385.527 132.011V296.321H497.527C502.027 296.312 506.345 298.09 509.533 301.265C512.721 304.44 514.518 308.751 514.527 313.25H271.527V132.011C271.559 116.926 277.582 102.47 288.272 91.8257C298.961 81.1808 313.442 75.2184 328.527 75.25Z" fill="#4A4754"/>
<path d="M314.849 168.818L326.652 217.574L557.533 161.682L545.73 112.926C545.588 112.33 545.297 111.779 544.885 111.326C544.473 110.872 543.953 110.53 543.373 110.331C542.945 110.18 542.492 110.112 542.039 110.13L408.58 41.0282C407.797 40.6288 406.898 40.5222 406.045 40.7274C405.191 40.9326 404.438 41.4363 403.923 42.1474L339.603 131.841L315.355 165.664C315.311 165.723 315.281 165.791 315.265 165.863C315.25 165.936 315.25 166.01 315.266 166.082C314.773 166.904 314.623 167.886 314.849 168.818Z" fill="white"/>
<path d="M315.266 166.082C315.278 166.146 315.302 166.206 315.337 166.26C315.371 166.315 315.417 166.361 315.47 166.398C315.532 166.441 315.603 166.471 315.678 166.485C315.752 166.5 315.829 166.5 315.903 166.484C316.024 166.451 316.129 166.378 316.202 166.276L316.285 166.161L317.548 164.395L340.477 132.431L404.777 42.758C405.144 42.2498 405.681 41.89 406.291 41.7439C406.9 41.5978 407.542 41.6751 408.099 41.9617L540.525 110.528L541.713 111.145C541.761 111.165 541.81 111.183 541.86 111.197C541.95 111.181 542.041 111.172 542.132 111.171C542.256 111.129 542.36 111.042 542.422 110.926C542.454 110.865 542.474 110.799 542.48 110.73C542.487 110.661 542.48 110.592 542.459 110.526C542.439 110.461 542.406 110.399 542.362 110.346C542.318 110.293 542.264 110.249 542.203 110.217L542.039 110.13L408.58 41.0282C407.797 40.6288 406.898 40.5222 406.045 40.7274C405.191 40.9326 404.438 41.4363 403.923 42.1474L339.603 131.841L315.355 165.664C315.311 165.723 315.281 165.791 315.265 165.863C315.25 165.936 315.25 166.01 315.266 166.082Z" fill="#4A4754"/>
<path d="M384.607 171.054L389.747 171.624L427.889 175.849L453.175 178.649L454.669 178.815L486.221 154.17L487.43 153.226L494.882 147.406L521.396 126.699L521.555 125.245L530.985 40.1309C531.114 38.9589 530.772 37.7837 530.036 36.863C529.299 35.9424 528.228 35.3513 527.056 35.2194L401.2 21.2776C400.028 21.1496 398.853 21.4913 397.933 22.2277C397.012 22.9642 396.421 24.0354 396.289 25.2068L389.638 85.2444L385.949 118.53L382.649 148.309L381.119 162.138L380.673 166.144C380.546 167.316 380.888 168.491 381.626 169.412C382.363 170.332 383.435 170.922 384.607 171.054Z" fill="#D2D1D4"/>
<path d="M419.192 96.4478L473.709 102.486L493.043 104.627C493.896 104.721 494.76 104.647 495.585 104.407C496.41 104.168 497.179 103.769 497.85 103.232C498.52 102.695 499.078 102.032 499.492 101.279C499.906 100.527 500.168 99.7001 500.262 98.8465C500.357 97.9929 500.282 97.1291 500.043 96.3043C499.804 95.4795 499.404 94.7099 498.868 94.0395C498.331 93.3691 497.667 92.8109 496.915 92.397C496.163 91.983 495.336 91.7212 494.482 91.6267L470.436 88.9635L420.636 83.4416C418.912 83.2511 417.183 83.7531 415.828 84.8373C414.474 85.9214 413.606 87.499 413.414 89.2232C413.223 90.9473 413.724 92.6769 414.808 94.0317C415.891 95.3865 417.468 96.2555 419.192 96.4478Z" fill="white"/>
<path d="M416.088 120.564C416.229 120.589 416.37 120.614 416.513 120.628L479.798 127.639L490.364 128.812C492.089 129.002 493.819 128.5 495.173 127.416C496.527 126.331 497.395 124.753 497.586 123.028C497.777 121.304 497.275 119.574 496.19 118.22C495.106 116.865 493.528 115.997 491.803 115.807L476.525 114.116L426.394 108.562L417.958 107.627C416.271 107.438 414.577 107.914 413.234 108.952C411.891 109.99 411.004 111.51 410.761 113.19C410.518 114.87 410.938 116.579 411.933 117.955C412.927 119.331 414.417 120.267 416.088 120.564V120.564Z" fill="white"/>
<path d="M408.926 141.948C409.445 142.809 410.155 143.538 411.001 144.081C411.847 144.623 412.807 144.962 413.806 145.073L439.745 147.946L485.942 153.064L485.952 153.061L487.43 153.226L494.882 147.406C494.928 146.964 494.928 146.518 494.883 146.076C494.726 144.591 494.067 143.205 493.014 142.146C491.962 141.087 490.58 140.418 489.096 140.252L482.679 139.539L457.222 136.722L438.905 134.69L415.245 132.068C414.032 131.934 412.806 132.141 411.706 132.667C410.605 133.193 409.673 134.017 409.016 135.045C408.359 136.072 408.002 137.263 407.986 138.483C407.97 139.703 408.296 140.903 408.926 141.948L408.926 141.948Z" fill="white"/>
<path d="M445.359 66.9696L458.923 68.4719L464.915 69.1372L473.965 70.1388C475.689 70.3296 477.419 69.8275 478.773 68.7429C480.128 67.6583 480.996 66.0802 481.186 64.3556C481.377 62.631 480.875 60.9013 479.79 59.547C478.706 58.1926 477.128 57.3246 475.403 57.1338L446.804 53.9684C445.08 53.7768 443.35 54.2779 441.996 55.3615C440.641 56.4451 439.772 58.0224 439.581 59.7464C439.389 61.4705 439.89 63.2001 440.974 64.5547C442.057 65.9093 443.635 66.7779 445.359 66.9695V66.9696Z" fill="white"/>
<path d="M334.444 103.182L350.981 171.496L378.582 176.744L404.114 181.605L431.508 186.817L440.261 188.483C440.773 188.58 441.301 188.566 441.807 188.444C442.314 188.321 442.789 188.092 443.201 187.771L450.223 182.287L454.669 178.815L486.221 154.17L466.159 71.2963C465.961 70.4718 465.529 69.7221 464.915 69.1372C464.376 68.6197 463.716 68.2461 462.995 68.0509C462.274 67.8556 461.516 67.845 460.79 68.02L337.72 97.8127C336.574 98.0909 335.585 98.8126 334.971 99.8193C334.357 100.826 334.167 102.035 334.444 103.182Z" fill="#809EFF"/>
<path d="M372.364 157.528C372.774 159.213 373.835 160.667 375.315 161.57C376.796 162.473 378.574 162.752 380.26 162.346L452.474 144.864C454.159 144.454 455.612 143.392 456.515 141.912C457.418 140.432 457.698 138.654 457.292 136.968C457.274 136.885 457.25 136.803 457.222 136.722C456.761 135.096 455.688 133.713 454.23 132.861C452.771 132.008 451.039 131.754 449.397 132.15L377.182 149.632C375.497 150.042 374.043 151.103 373.14 152.583C372.237 154.064 371.958 155.842 372.364 157.528Z" fill="white"/>
<path d="M378.583 176.744L404.115 181.605L458.199 168.512C459.885 168.104 461.34 167.043 462.243 165.562C463.147 164.081 463.425 162.302 463.017 160.616C462.609 158.93 461.548 157.475 460.067 156.572C458.586 155.668 456.807 155.39 455.121 155.798L382.907 173.28C381.398 173.642 380.068 174.533 379.159 175.791C378.941 176.092 378.748 176.411 378.583 176.744Z" fill="white"/>
<path d="M431.508 186.817L440.261 188.483C440.773 188.58 441.301 188.566 441.807 188.444C442.314 188.321 442.789 188.092 443.201 187.771L450.223 182.287L431.508 186.817Z" fill="white"/>
<path d="M386.915 120.897C387.324 122.582 388.386 124.036 389.866 124.939C391.347 125.842 393.125 126.121 394.811 125.715L422.781 118.944C424.466 118.533 425.919 117.472 426.822 115.992C427.725 114.511 428.005 112.734 427.599 111.048C427.381 110.142 426.97 109.294 426.394 108.562C425.62 107.572 424.578 106.826 423.392 106.412C422.205 105.999 420.925 105.935 419.703 106.23L391.733 113.001C390.047 113.409 388.593 114.47 387.689 115.951C386.785 117.432 386.507 119.211 386.915 120.897V120.897Z" fill="white"/>
<path d="M404.112 181.604L431.51 186.818L440.261 188.484C440.773 188.58 441.3 188.566 441.806 188.443C442.312 188.321 442.787 188.092 443.199 187.773L450.226 182.287L447.76 182.884L442.554 186.945C442.26 187.173 441.921 187.337 441.559 187.424C441.198 187.512 440.821 187.522 440.456 187.453L433.976 186.221L406.578 181.007L404.112 181.604ZM485.95 153.065L486.217 154.167L487.432 153.222L485.95 153.065ZM404.112 181.604L431.51 186.818L440.261 188.484C440.773 188.58 441.3 188.566 441.806 188.443C442.312 188.321 442.787 188.092 443.199 187.773L450.226 182.287L447.76 182.884L442.554 186.945C442.26 187.173 441.921 187.337 441.559 187.424C441.198 187.512 440.821 187.522 440.456 187.453L433.976 186.221L406.578 181.007L404.112 181.604ZM404.112 181.604L431.51 186.818L440.261 188.484C440.773 188.58 441.3 188.566 441.806 188.443C442.312 188.321 442.787 188.092 443.199 187.773L450.226 182.287L447.76 182.884L442.554 186.945C442.26 187.173 441.921 187.337 441.559 187.424C441.198 187.512 440.821 187.522 440.456 187.453L433.976 186.221L406.578 181.007L404.112 181.604ZM314.849 168.817L345.765 296.528C345.995 297.471 346.589 298.286 347.418 298.791C348.247 299.297 349.243 299.454 350.187 299.226L573.948 245.058C574.892 244.829 575.706 244.234 576.212 243.405C576.718 242.576 576.874 241.58 576.647 240.636L545.73 112.926C545.588 112.33 545.297 111.779 544.885 111.326C544.473 110.872 543.953 110.53 543.373 110.331C542.945 110.18 542.492 110.112 542.039 110.13C541.51 110.145 540.992 110.282 540.525 110.528C540.309 110.631 540.105 110.757 539.917 110.905L521.553 125.245L494.883 146.079L485.948 153.058L485.95 153.065L485.942 153.067L453.177 178.645L447.76 182.884L442.554 186.945C442.26 187.173 441.921 187.336 441.559 187.424C441.198 187.512 440.821 187.522 440.456 187.453L433.976 186.221L406.578 181.007L379.156 175.792L319.095 164.362C318.583 164.26 318.055 164.272 317.548 164.395C316.865 164.562 316.244 164.922 315.759 165.431C315.574 165.631 315.409 165.849 315.266 166.082C314.773 166.904 314.623 167.886 314.849 168.817ZM404.112 181.604L431.51 186.818L440.261 188.484C440.773 188.58 441.3 188.566 441.806 188.443C442.312 188.321 442.787 188.092 443.199 187.773L450.226 182.287L447.76 182.884L442.554 186.945C442.26 187.173 441.921 187.337 441.559 187.424C441.198 187.512 440.821 187.522 440.456 187.453L433.976 186.221L406.578 181.007L404.112 181.604ZM404.112 181.604L431.51 186.818L440.261 188.484C440.773 188.58 441.3 188.566 441.806 188.443C442.312 188.321 442.787 188.092 443.199 187.773L450.226 182.287L447.76 182.884L442.554 186.945C442.26 187.173 441.921 187.337 441.559 187.424C441.198 187.512 440.821 187.522 440.456 187.453L433.976 186.221L406.578 181.007L404.112 181.604ZM404.112 181.604L431.51 186.818L440.261 188.484C440.773 188.58 441.3 188.566 441.806 188.443C442.312 188.321 442.787 188.092 443.199 187.773L450.226 182.287L447.76 182.884L442.554 186.945C442.26 187.173 441.921 187.337 441.559 187.424C441.198 187.512 440.821 187.522 440.456 187.453L433.976 186.221L406.578 181.007L404.112 181.604Z" fill="white"/>
<path d="M404.112 181.604L431.51 186.818L440.261 188.484C440.773 188.58 441.3 188.566 441.806 188.444C442.312 188.321 442.787 188.092 443.199 187.773L450.226 182.287L447.76 182.884L442.554 186.945C442.26 187.173 441.921 187.337 441.559 187.424C441.198 187.512 440.821 187.522 440.456 187.453L433.976 186.221L406.578 181.007L404.112 181.604ZM485.95 153.065L486.217 154.167L487.432 153.222L485.95 153.065ZM404.112 181.604L431.51 186.818L440.261 188.484C440.773 188.58 441.3 188.566 441.806 188.444C442.312 188.321 442.787 188.092 443.199 187.773L450.226 182.287L447.76 182.884L442.554 186.945C442.26 187.173 441.921 187.337 441.559 187.424C441.198 187.512 440.821 187.522 440.456 187.453L433.976 186.221L406.578 181.007L404.112 181.604ZM404.112 181.604L431.51 186.818L440.261 188.484C440.773 188.58 441.3 188.566 441.806 188.444C442.312 188.321 442.787 188.092 443.199 187.773L450.226 182.287L447.76 182.884L442.554 186.945C442.26 187.173 441.921 187.337 441.559 187.424C441.198 187.512 440.821 187.522 440.456 187.453L433.976 186.221L406.578 181.007L404.112 181.604ZM316.285 166.161L316.421 166.263C316.444 166.226 316.483 166.192 316.513 166.153C316.816 165.838 317.193 165.603 317.609 165.469C318.025 165.335 318.468 165.306 318.898 165.386L378.584 176.74L404.112 181.604L431.51 186.818L440.261 188.484C440.773 188.58 441.3 188.566 441.806 188.443C442.312 188.321 442.787 188.092 443.199 187.773L450.226 182.287L447.76 182.884L442.554 186.945C442.26 187.173 441.921 187.337 441.559 187.424C441.198 187.512 440.821 187.522 440.456 187.453L433.976 186.221L406.578 181.007L379.156 175.792L319.095 164.362C318.583 164.261 318.055 164.272 317.548 164.395L316.285 166.161ZM314.849 168.818L345.765 296.528C345.995 297.471 346.589 298.286 347.418 298.791C348.247 299.297 349.243 299.454 350.187 299.226L573.948 245.058C574.892 244.829 575.706 244.234 576.212 243.405C576.718 242.576 576.874 241.58 576.647 240.636L545.73 112.926C545.588 112.33 545.297 111.779 544.885 111.326C544.473 110.872 543.953 110.53 543.373 110.331C542.945 110.18 542.492 110.112 542.039 110.13C541.51 110.145 540.992 110.282 540.525 110.528C540.309 110.631 540.105 110.757 539.917 110.906L521.553 125.245L494.883 146.079L485.948 153.058L485.95 153.065L485.942 153.067L453.177 178.645L447.76 182.884L442.554 186.945C442.26 187.173 441.921 187.337 441.559 187.424C441.198 187.512 440.821 187.522 440.456 187.453L433.976 186.221L406.578 181.007L379.156 175.792L319.095 164.362C318.583 164.261 318.055 164.272 317.548 164.395C316.865 164.562 316.244 164.922 315.759 165.431C315.574 165.631 315.409 165.849 315.266 166.082C314.773 166.904 314.623 167.886 314.849 168.818ZM315.869 168.571C315.778 168.194 315.772 167.802 315.852 167.423C315.931 167.044 316.095 166.688 316.33 166.38C316.352 166.335 316.383 166.295 316.421 166.263C316.444 166.226 316.483 166.192 316.513 166.153C316.816 165.838 317.193 165.603 317.609 165.469C318.025 165.335 318.468 165.306 318.898 165.386L378.584 176.74L404.112 181.604L431.51 186.818L440.261 188.484C440.773 188.58 441.3 188.566 441.806 188.444C442.312 188.321 442.787 188.092 443.199 187.773L450.226 182.287L454.67 178.815L486.217 154.167L487.432 153.222L494.879 147.405L521.397 126.695L540.568 111.724C540.859 111.497 541.196 111.334 541.555 111.247C541.655 111.222 541.757 111.206 541.86 111.197C541.95 111.181 542.041 111.172 542.132 111.171C542.438 111.168 542.743 111.218 543.032 111.318C543.446 111.462 543.816 111.707 544.111 112.03C544.405 112.354 544.614 112.746 544.719 113.171L575.635 240.881C575.716 241.216 575.73 241.563 575.677 241.903C575.624 242.244 575.505 242.57 575.325 242.864C575.146 243.158 574.91 243.414 574.632 243.617C574.354 243.82 574.038 243.966 573.703 244.046L349.942 298.214C349.267 298.376 348.555 298.264 347.963 297.901C347.371 297.539 346.947 296.956 346.785 296.281L315.869 168.571ZM404.112 181.604L431.51 186.818L440.261 188.484C440.773 188.58 441.3 188.566 441.806 188.444C442.312 188.321 442.787 188.092 443.199 187.773L450.226 182.287L447.76 182.884L442.554 186.945C442.26 187.173 441.921 187.337 441.559 187.424C441.198 187.512 440.821 187.522 440.456 187.453L433.976 186.221L406.578 181.007L404.112 181.604ZM404.112 181.604L431.51 186.818L440.261 188.484C440.773 188.58 441.3 188.566 441.806 188.444C442.312 188.321 442.787 188.092 443.199 187.773L450.226 182.287L447.76 182.884L442.554 186.945C442.26 187.173 441.921 187.337 441.559 187.424C441.198 187.512 440.821 187.522 440.456 187.453L433.976 186.221L406.578 181.007L404.112 181.604ZM404.112 181.604L431.51 186.818L440.261 188.484C440.773 188.58 441.3 188.566 441.806 188.444C442.312 188.321 442.787 188.092 443.199 187.773L450.226 182.287L447.76 182.884L442.554 186.945C442.26 187.173 441.921 187.337 441.559 187.424C441.198 187.512 440.821 187.522 440.456 187.453L433.976 186.221L406.578 181.007L404.112 181.604Z" fill="#4A4754"/>
<path d="M515.629 219.967C515.125 217.875 515.472 215.668 516.593 213.83C517.714 211.993 519.519 210.675 521.61 210.166L549.852 203.329C551.942 202.831 554.144 203.182 555.975 204.304C557.807 205.426 559.12 207.229 559.625 209.317C560.131 211.405 559.788 213.608 558.672 215.444C557.556 217.28 555.758 218.599 553.672 219.111L525.431 225.948C523.338 226.452 521.131 226.106 519.293 224.984C517.456 223.863 516.138 222.059 515.629 219.967Z" fill="#809EFF"/>
<path d="M203.527 196.25C207.393 196.25 210.527 193.116 210.527 189.25C210.527 185.384 207.393 182.25 203.527 182.25C199.661 182.25 196.527 185.384 196.527 189.25C196.527 193.116 199.661 196.25 203.527 196.25Z" fill="white"/>
</g>
<defs>
<clipPath id="clip0_2782_346329">
<rect width="576.499" height="493.5" fill="white" transform="translate(0.250488 0.25)"/>
</clipPath>
</defs>
</svg>
