<svg width="619" height="412" viewBox="0 0 619 412" fill="none" xmlns="http://www.w3.org/2000/svg">
<g clip-path="url(#clip0_2781_346226)">
<path d="M222.177 237.034C243.356 199.751 283.755 171.124 326.521 173.882C294.976 208.211 276.581 252.6 274.591 299.194C273.889 317.167 274.978 337.23 263.053 350.687C255.634 359.061 244.293 363.116 233.142 363.967C221.991 364.818 210.842 362.802 199.84 360.794L197.171 361.614C196.155 318.74 200.998 274.317 222.177 237.034Z" fill="#E8E8EA"/>
<path d="M326.585 174.779C294.96 190.015 267.994 215.459 251.44 246.491C247.861 253.2 244.814 260.317 243.485 267.842C242.155 275.371 243.084 282.538 245.654 289.688C248.003 296.226 251.162 302.64 251.883 309.635C252.642 317.008 249.931 323.902 245.052 329.373C239.081 336.067 231.063 340.215 223.081 343.999C214.219 348.2 204.948 352.424 198.671 360.265C197.91 361.215 196.482 359.979 197.241 359.03C208.162 345.388 226.855 342.823 239.819 331.834C245.867 326.706 250.409 319.723 250.122 311.54C249.871 304.385 246.619 297.767 244.183 291.169C241.626 284.241 240.35 277.274 241.267 269.887C242.206 262.331 244.981 255.079 248.373 248.308C256.022 233.038 266.49 219.019 278.482 206.9C292.264 192.969 308.326 181.501 325.973 172.991C327.066 172.465 327.67 174.257 326.585 174.779Z" fill="white"/>
<path d="M256.289 236.12C251.441 232.572 248.011 227.416 246.611 221.571C245.211 215.726 245.933 209.574 248.648 204.212C249.201 203.129 250.909 203.939 250.355 205.023C247.818 210.011 247.146 215.742 248.46 221.182C249.775 226.622 252.989 231.412 257.523 234.689C258.508 235.402 257.268 236.829 256.289 236.12Z" fill="white"/>
<path d="M244.026 286.531C256.175 284.754 267.208 278.461 274.926 268.906C275.69 267.958 277.118 269.195 276.356 270.141C268.306 280.069 256.811 286.595 244.165 288.416C242.959 288.589 242.828 286.703 244.026 286.531V286.531Z" fill="white"/>
<path d="M293.198 195.295C294.788 197.059 296.791 198.4 299.026 199.198C301.262 199.995 303.661 200.225 306.008 199.865C307.21 199.678 307.341 201.564 306.146 201.751C303.552 202.135 300.903 201.879 298.43 201.003C295.958 200.127 293.738 198.659 291.963 196.726C291.781 196.558 291.669 196.326 291.651 196.079C291.633 195.831 291.71 195.586 291.866 195.393C292.03 195.204 292.262 195.088 292.512 195.07C292.761 195.052 293.007 195.133 293.198 195.295Z" fill="white"/>
<path d="M411.613 291.496C410.865 291.635 410.117 291.773 409.363 291.926C399.321 293.843 389.451 296.574 379.851 300.09C379.105 300.35 378.352 300.625 377.615 300.906C354.576 309.625 333.355 322.548 315.031 339.019C307.746 345.58 300.969 352.686 294.761 360.276C286.188 370.758 277.726 382.806 266.523 389.64C265.362 390.366 264.157 391.02 262.916 391.597L198.378 364.808C198.261 364.674 198.139 364.554 198.022 364.419L195.396 363.467C195.689 363.053 196.002 362.63 196.294 362.217C196.463 361.976 196.646 361.741 196.815 361.5C196.933 361.342 197.05 361.183 197.147 361.034C197.186 360.981 197.225 360.928 197.258 360.89C197.355 360.74 197.46 360.611 197.551 360.476C199.292 358.107 201.053 355.747 202.833 353.394C202.839 353.379 202.839 353.379 202.86 353.371C216.471 335.481 231.694 318.571 248.998 304.511C249.519 304.089 250.045 303.651 250.595 303.24C258.43 296.946 266.766 291.303 275.52 286.368C280.322 283.681 285.257 281.239 290.305 279.051C303.361 273.424 317.22 269.887 331.374 268.57C359.591 265.948 388.331 272.385 409.973 290.124C410.526 290.579 411.065 291.027 411.613 291.496Z" fill="#E8E8EA"/>
<path d="M411.128 292.255C376.711 285.366 339.872 289.435 307.985 304.238C301.091 307.438 294.376 311.285 288.787 316.493C283.196 321.703 279.626 327.985 277.375 335.243C275.318 341.878 273.982 348.903 270.348 354.922C266.519 361.266 260.207 365.137 253.019 366.566C244.225 368.313 235.327 366.795 226.677 365.007C217.074 363.022 207.13 360.808 197.401 363.287C196.222 363.587 195.825 361.739 197.002 361.439C213.93 357.126 230.398 366.342 247.36 365.378C255.275 364.928 263.102 362.088 267.796 355.382C271.901 349.518 273.286 342.275 275.311 335.539C277.437 328.466 280.61 322.135 285.786 316.79C291.082 311.322 297.66 307.204 304.442 303.841C319.737 296.257 336.53 291.371 353.396 288.92C372.781 286.101 392.505 286.622 411.715 290.459C412.904 290.697 412.309 292.492 411.128 292.255V292.255Z" fill="white"/>
<path d="M318.096 298.879C316.359 293.125 316.723 286.941 319.122 281.431C321.521 275.921 325.799 271.444 331.192 268.799C332.285 268.268 333.161 269.942 332.067 270.475C327.04 272.928 323.056 277.099 320.832 282.235C318.609 287.37 318.293 293.132 319.942 298.48C320.299 299.643 318.451 300.035 318.096 298.879Z" fill="white"/>
<path d="M277.976 331.741C288.744 337.642 301.34 339.265 313.251 336.285C314.431 335.989 314.828 337.837 313.65 338.133C301.249 341.21 288.145 339.495 276.952 333.33C275.886 332.741 276.915 331.156 277.976 331.741Z" fill="white"/>
<path d="M372.127 288.52C372.335 290.886 373.128 293.164 374.433 295.148C375.738 297.132 377.516 298.761 379.605 299.887C380.679 300.462 379.648 302.047 378.582 301.476C376.279 300.22 374.318 298.419 372.871 296.23C371.424 294.041 370.535 291.531 370.281 288.919C370.236 288.675 370.286 288.423 370.421 288.214C370.555 288.006 370.764 287.856 371.004 287.796C371.249 287.744 371.504 287.791 371.715 287.927C371.925 288.063 372.073 288.276 372.127 288.52Z" fill="white"/>
<path d="M288.672 335.692C279.634 291.959 268.336 277.378 268.336 277.378L264.02 274.028L258.829 269.993L258.854 269.475L257.623 269.056L257.334 268.831L256.86 268.467L256.784 268.549L256.623 268.716L233.135 260.726L203.338 250.597L189.539 232.649C187.292 229.726 184.399 227.364 181.087 225.747C177.774 224.13 174.133 223.303 170.447 223.33L126.38 223.657C120.422 223.701 114.695 225.974 110.327 230.029L81.3617 256.915L36.229 278.486L36.1528 278.41L35.6789 278.748L28.7055 282.085L28.9933 283.584L24.6771 286.701C24.6771 286.701 13.3792 300.268 4.34077 340.962C2.04151 351.316 0.909722 373.527 0.501209 400.898C0.480689 402.282 0.735431 403.657 1.25061 404.942C1.7658 406.228 2.53115 407.397 3.50216 408.384C4.47318 409.37 5.63049 410.154 6.9068 410.689C8.1831 411.224 9.55295 411.5 10.9367 411.5H251.999V411.5H282.087C283.47 411.499 284.839 411.224 286.114 410.689C287.39 410.155 288.546 409.373 289.517 408.387C290.488 407.402 291.254 406.233 291.77 404.95C292.286 403.666 292.542 402.292 292.523 400.909C292.124 371.125 290.992 346.921 288.672 335.692Z" fill="#4A4754"/>
<path d="M319.602 38.6392C310.223 38.6392 301.228 42.3676 294.596 49.0042C287.965 55.6407 284.239 64.6418 284.239 74.0273C284.239 83.4128 287.965 92.414 294.596 99.0505C301.228 105.687 310.223 109.415 319.602 109.415H583.137C592.516 109.415 601.511 105.687 608.142 99.0505C614.774 92.414 618.5 83.4128 618.5 74.0273C618.5 64.6418 614.774 55.6407 608.142 49.0042C601.511 42.3676 592.516 38.6392 583.137 38.6392H319.602Z" fill="#E8E8EA"/>
<path d="M319.602 45.8011C312.121 45.8011 304.947 48.775 299.657 54.0684C294.367 59.3619 291.396 66.5413 291.396 74.0274C291.396 81.5135 294.367 88.6929 299.657 93.9864C304.947 99.2798 312.121 102.254 319.602 102.254H583.137C590.618 102.254 597.792 99.2798 603.082 93.9864C608.372 88.6929 611.343 81.5135 611.343 74.0274C611.343 66.5413 608.372 59.3619 603.082 54.0684C597.792 48.775 590.618 45.8011 583.137 45.8011H319.602Z" fill="white"/>
<path d="M155.334 206.763C187.219 206.763 213.066 180.897 213.066 148.989C213.066 117.081 187.219 91.2148 155.334 91.2148C123.449 91.2148 97.6014 117.081 97.6014 148.989C97.6014 180.897 123.449 206.763 155.334 206.763Z" fill="#FA9494"/>
<path d="M140.565 203.934C140.318 203.391 140.072 202.846 139.827 202.298C139.922 202.301 140.015 202.315 140.11 202.317L140.565 203.934Z" fill="#1D1929"/>
<path d="M95.9959 93.8421C98.9159 91.5112 102.329 89.3664 106.062 89.4869C109.795 89.6073 113.581 92.9816 112.807 96.6384C119.665 84.4884 130.579 75.1437 143.635 70.2445C156.691 65.3452 171.055 65.2046 184.204 69.8472C193.483 73.1231 202.582 79.6769 204.713 89.2894C205.261 91.7569 205.378 94.4625 206.918 96.4663C208.859 98.9926 212.573 99.5641 215.631 98.6754C215.662 98.6665 215.692 98.6575 215.723 98.6483C216.239 98.4718 216.797 98.4544 217.324 98.5985C217.85 98.7426 218.321 99.0415 218.676 99.4565C219.031 99.8716 219.254 100.384 219.315 100.927C219.376 101.469 219.273 102.018 219.019 102.502L216.393 107.402C219.703 108.14 223.141 108.067 226.417 107.188C226.961 107.045 227.536 107.075 228.062 107.272C228.589 107.469 229.042 107.824 229.359 108.289C229.676 108.754 229.842 109.306 229.833 109.869C229.824 110.431 229.642 110.978 229.311 111.433C220.654 123.327 206.191 131.007 191.432 130.917C180.942 130.853 170.345 127.235 160.136 129.649C156.186 130.583 152.496 132.39 149.335 134.937C146.175 137.484 143.624 140.707 141.871 144.37C140.117 148.032 139.205 152.041 139.202 156.102C139.199 160.163 140.104 164.173 141.851 167.839C138.715 164.406 132.652 165.219 129.444 168.585C126.236 171.95 125.406 176.974 125.729 181.614C126.223 188.711 129.002 195.398 131.931 201.907C107.372 201.133 84.1439 183.893 76.3251 160.575C68.4735 137.16 76.7022 109.244 95.9959 93.8421Z" fill="#1D1929"/>
<path opacity="0.2" d="M57.3238 322.489L73.5165 410.653L83.2324 411.5L57.3238 322.489Z" fill="black"/>
<path opacity="0.2" d="M235.689 315.839L219.497 410.59L209.781 411.5L235.689 315.839Z" fill="black"/>
<path d="M109.807 64.1705C106.702 65.4678 103.463 64.046 102.104 60.7899C100.725 57.4841 102.013 54.1282 105.167 52.8101C108.322 51.4918 111.504 52.9171 112.906 56.2762C114.286 59.585 113.012 62.8312 109.807 64.1705ZM103.86 46.3031L101.391 47.3346C100.774 47.5892 100.085 47.603 99.4584 47.3731C98.832 47.1432 98.3147 46.6864 98.0088 46.0932L97.8867 45.8541C95.2305 41.0604 94.9264 35.2342 96.9876 28.5466C98.897 22.5474 99.6901 18.3283 98.0951 14.5059C96.2511 10.0866 92.3134 8.70223 87.292 10.7076C85.3444 11.5215 84.7247 11.5085 83.1921 13.03C82.8587 13.3649 82.4613 13.6293 82.0236 13.8073C81.5859 13.9853 81.1169 14.0733 80.6445 14.0659C80.1879 14.0606 79.737 13.9632 79.3187 13.7797C78.9005 13.5962 78.5234 13.3302 78.2101 12.9977C77.6064 12.357 77.2682 11.5109 77.2638 10.6303C77.2593 9.74968 77.589 8.9002 78.1862 8.25339C80.7623 5.55477 83.8694 3.41983 87.3114 1.98327C98.1003 -2.52506 103.532 4.13084 106.017 10.0872C108.448 15.9133 107.08 21.3189 104.883 28.3197C103.042 34.1369 103.149 38.4474 105.241 42.7333C105.392 43.0573 105.476 43.4086 105.488 43.7659C105.5 44.1232 105.439 44.4793 105.31 44.8127C105.181 45.1461 104.986 45.45 104.737 45.7061C104.488 45.9622 104.189 46.1652 103.86 46.303L103.86 46.3031Z" fill="#809EFF"/>
<path d="M377.813 90.9051H325.379C325.213 90.9062 325.048 90.8743 324.893 90.8113C324.739 90.7483 324.599 90.6554 324.481 90.5379C324.363 90.4205 324.269 90.2808 324.205 90.1269C324.141 89.973 324.108 89.8079 324.108 89.6412C324.108 89.4745 324.141 89.3095 324.205 89.1555C324.269 89.0016 324.363 88.8619 324.481 88.7445C324.599 88.627 324.739 88.5341 324.893 88.4711C325.048 88.4081 325.213 88.3762 325.379 88.3773H377.813C378.147 88.3796 378.466 88.5138 378.701 88.7505C378.936 88.9873 379.068 89.3075 379.068 89.6412C379.068 89.9749 378.936 90.2951 378.701 90.5319C378.466 90.7686 378.147 90.9028 377.813 90.9051Z" fill="#809EFF"/>
<path d="M444.329 91.3263H391.895C391.728 91.3275 391.563 91.2956 391.409 91.2326C391.255 91.1696 391.114 91.0767 390.996 90.9592C390.878 90.8417 390.784 90.702 390.72 90.5481C390.656 90.3942 390.623 90.2292 390.623 90.0625C390.623 89.8958 390.656 89.7307 390.72 89.5768C390.784 89.4229 390.878 89.2832 390.996 89.1657C391.114 89.0483 391.255 88.9553 391.409 88.8923C391.563 88.8293 391.728 88.7975 391.895 88.7986H444.329C444.495 88.7975 444.66 88.8293 444.815 88.8923C444.969 88.9553 445.109 89.0483 445.227 89.1657C445.345 89.2832 445.439 89.4229 445.503 89.5768C445.567 89.7307 445.6 89.8958 445.6 90.0625C445.6 90.2292 445.567 90.3942 445.503 90.5481C445.439 90.702 445.345 90.8417 445.227 90.9592C445.109 91.0767 444.969 91.1696 444.815 91.2326C444.66 91.2956 444.495 91.3275 444.329 91.3263Z" fill="#809EFF"/>
<path d="M510.844 91.7477H458.41C458.077 91.7454 457.758 91.6112 457.523 91.3745C457.288 91.1377 457.156 90.8175 457.156 90.4838C457.156 90.1501 457.288 89.8299 457.523 89.5931C457.758 89.3564 458.077 89.2222 458.41 89.2199H510.844C511.011 89.2188 511.176 89.2507 511.33 89.3137C511.484 89.3767 511.624 89.4696 511.743 89.5871C511.861 89.7045 511.955 89.8442 512.019 89.9981C512.083 90.152 512.116 90.3171 512.116 90.4838C512.116 90.6505 512.083 90.8156 512.019 90.9695C511.955 91.1234 511.861 91.2631 511.743 91.3805C511.624 91.498 511.484 91.5909 511.33 91.6539C511.176 91.7169 511.011 91.7488 510.844 91.7477H510.844Z" fill="#809EFF"/>
<path d="M577.36 92.1689H524.926C524.592 92.1666 524.273 92.0325 524.038 91.7957C523.803 91.5589 523.671 91.2387 523.671 90.905C523.671 90.5713 523.803 90.2511 524.038 90.0144C524.273 89.7776 524.592 89.6434 524.926 89.6412H577.36C577.693 89.6434 578.012 89.7776 578.247 90.0144C578.482 90.2511 578.614 90.5713 578.614 90.905C578.614 91.2387 578.482 91.5589 578.247 91.7957C578.012 92.0325 577.693 92.1666 577.36 92.1689Z" fill="#809EFF"/>
<path d="M351.481 79.2735C356.863 79.2735 361.226 74.9073 361.226 69.5213C361.226 64.1353 356.863 59.769 351.481 59.769C346.099 59.769 341.736 64.1353 341.736 69.5213C341.736 74.9073 346.099 79.2735 351.481 79.2735Z" fill="#809EFF"/>
<path d="M418.398 79.2735C423.78 79.2735 428.143 74.9073 428.143 69.5213C428.143 64.1353 423.78 59.769 418.398 59.769C413.016 59.769 408.653 64.1353 408.653 69.5213C408.653 74.9073 413.016 79.2735 418.398 79.2735Z" fill="#809EFF"/>
<path d="M485.315 79.2735C490.698 79.2735 495.061 74.9073 495.061 69.5213C495.061 64.1353 490.698 59.769 485.315 59.769C479.933 59.769 475.57 64.1353 475.57 69.5213C475.57 74.9073 479.933 79.2735 485.315 79.2735Z" fill="#809EFF"/>
<path d="M552.233 79.2735C557.615 79.2735 561.978 74.9073 561.978 69.5213C561.978 64.1353 557.615 59.769 552.233 59.769C546.85 59.769 542.487 64.1353 542.487 69.5213C542.487 74.9073 546.85 79.2735 552.233 79.2735Z" fill="#809EFF"/>
</g>
<defs>
<clipPath id="clip0_2781_346226">
<rect width="618" height="411" fill="white" transform="translate(0.5 0.5)"/>
</clipPath>
</defs>
</svg>
