<svg width="715" height="522" viewBox="0 0 715 522" fill="none" xmlns="http://www.w3.org/2000/svg">
<g clip-path="url(#clip0_2781_345526)">
<path d="M588.592 515.187C577.454 505.776 570.689 490.908 572.463 476.434C574.237 461.96 585.226 448.654 599.481 445.58C613.736 442.506 629.985 451.015 634.315 464.939C636.698 438.093 639.443 410.122 653.717 387.26C666.641 366.559 689.025 351.746 713.285 349.096C737.545 346.446 763.088 356.455 778.218 375.603C793.348 394.751 797.053 422.588 786.456 444.572C778.65 460.767 764.268 472.819 749.199 482.624C700.508 514.041 642.108 526.817 584.746 518.601L588.592 515.187Z" fill="#E8E8EA"/>
<path d="M754.228 357.01C734.21 373.314 715.846 391.549 699.402 411.452C673.666 442.492 652.84 477.295 637.65 514.646C636.538 517.371 640.962 518.557 642.062 515.862C666.916 455.159 706.592 401.655 757.463 360.245C759.748 358.385 756.493 355.165 754.228 357.01Z" fill="white"/>
<path d="M202.567 512.63C217.866 499.703 227.158 479.282 224.721 459.402C222.284 439.522 207.19 421.246 187.612 417.024C168.033 412.803 145.714 424.489 139.767 443.615C136.495 406.741 132.723 368.323 113.119 336.921C95.3677 308.488 64.6223 288.143 31.3012 284.504C-2.01993 280.864 -37.1028 294.611 -57.8839 320.911C-78.6651 347.211 -83.7533 385.445 -69.1987 415.64C-58.4768 437.883 -38.7234 454.437 -18.0267 467.904C48.0028 510.869 129.912 528.788 207.851 517.319" fill="#E8E8EA"/>
<path d="M-24.9333 295.373C2.56074 317.767 27.7836 342.813 50.3705 370.149C72.961 397.457 92.8495 426.892 109.757 458.04C119.207 475.513 127.696 493.488 135.187 511.886C136.714 515.629 130.637 517.258 129.127 513.557C115.859 481.121 99.4441 450.064 80.1177 420.83C60.8852 391.702 38.8725 364.509 14.389 339.632C0.54096 325.568 -14.0699 312.276 -29.3773 299.817C-32.5149 297.262 -28.045 292.839 -24.9333 295.373L-24.9333 295.373Z" fill="white"/>
<path d="M547 519.931H182V145.431C182 65.753 246.822 0.930725 326.5 0.930725H402.5C482.178 0.930725 547 65.753 547 145.431V519.931Z" fill="#E8E8EA"/>
<path d="M471 519.931H182V145.431C181.92 114.9 191.588 85.141 209.596 60.4864C210.26 59.5816 210.922 58.6885 211.604 57.8052C220.315 46.3813 230.68 36.3204 242.359 27.9547C243.018 27.4747 243.681 27.003 244.353 26.5313C254.125 19.7687 264.696 14.2405 275.825 10.0723C276.486 9.82184 277.159 9.57086 277.832 9.33012C287.897 5.7382 298.33 3.27775 308.94 1.9942C309.598 1.90435 310.273 1.83404 310.948 1.76373C321.287 0.658264 331.715 0.658264 342.054 1.76373C342.727 1.83404 343.402 1.90434 344.068 1.99516C354.675 3.2788 365.106 5.73895 375.168 9.33017C375.841 9.5709 376.514 9.82187 377.177 10.0728C388.169 14.1884 398.615 19.6342 408.283 26.2887C408.955 26.7501 409.627 27.2218 410.29 27.6935C416.836 32.3662 422.985 37.5719 428.673 43.2574C433.235 47.8179 437.486 52.679 441.398 57.8082C442.078 58.6886 442.74 59.5817 443.403 60.485C461.411 85.1399 471.08 114.899 471 145.431V519.931Z" fill="#809EFF"/>
<path d="M447.5 352.431C456.336 352.431 463.5 345.267 463.5 336.431C463.5 327.594 456.336 320.431 447.5 320.431C438.663 320.431 431.5 327.594 431.5 336.431C431.5 345.267 438.663 352.431 447.5 352.431Z" fill="#1D1929"/>
<path d="M517.099 508.714H504.839L499.006 461.426L517.101 461.427L517.099 508.714Z" fill="#FBA9A9"/>
<path d="M496.082 505.211H519.725V520.097H481.195C481.195 518.142 481.58 516.207 482.328 514.4C483.076 512.594 484.173 510.953 485.555 509.571C486.937 508.188 488.579 507.092 490.385 506.344C492.191 505.596 494.127 505.211 496.082 505.211Z" fill="#4A4754"/>
<path d="M578.099 508.714H565.839L560.006 461.426L578.101 461.427L578.099 508.714Z" fill="#FBA9A9"/>
<path d="M557.082 505.211H580.725V520.097H542.195C542.195 518.142 542.58 516.207 543.328 514.4C544.076 512.594 545.173 510.953 546.555 509.571C547.937 508.188 549.579 507.092 551.385 506.344C553.191 505.596 555.127 505.211 557.082 505.211Z" fill="#4A4754"/>
<path d="M455.598 339.6C454.716 338.301 454.129 336.824 453.88 335.273C453.631 333.723 453.724 332.136 454.154 330.626C454.584 329.115 455.34 327.717 456.369 326.531C457.398 325.344 458.674 324.397 460.108 323.757L501.784 208.891L522.291 220.082L474.706 329.853C475.622 332.333 475.596 335.064 474.633 337.526C473.67 339.989 471.837 342.012 469.482 343.214C467.126 344.416 464.412 344.711 461.853 344.045C459.294 343.379 457.068 341.798 455.598 339.6Z" fill="#FBA9A9"/>
<path d="M571.836 361.184C570.474 360.403 569.299 359.333 568.395 358.049C567.491 356.764 566.88 355.298 566.604 353.751C566.328 352.205 566.395 350.618 566.799 349.1C567.203 347.582 567.935 346.172 568.943 344.968L556.033 223.458L579.37 224.525L584.736 344.045C586.647 345.873 587.82 348.338 588.035 350.974C588.249 353.609 587.489 356.232 585.899 358.344C584.309 360.457 581.999 361.913 579.407 362.436C576.816 362.96 574.122 362.514 571.836 361.184Z" fill="#FBA9A9"/>
<path d="M534.606 187.614C548.17 187.614 559.167 176.618 559.167 163.053C559.167 149.489 548.17 138.492 534.606 138.492C521.041 138.492 510.045 149.489 510.045 163.053C510.045 176.618 521.041 187.614 534.606 187.614Z" fill="#FBA9A9"/>
<path d="M571.68 333.549H497.633L497.722 332.973C497.855 332.112 510.919 246.534 501.284 218.537C500.317 215.786 500.402 212.774 501.522 210.082C502.643 207.389 504.72 205.207 507.353 203.954H507.353C521.125 197.468 547.561 189.483 569.873 208.863C573.157 211.762 575.72 215.385 577.362 219.445C579.004 223.506 579.679 227.893 579.333 232.259L571.68 333.549Z" fill="#1D1929"/>
<path d="M511.854 259.181L478.518 252.418L494.144 215.388C495.079 211.802 497.399 208.732 500.594 206.854C503.789 204.975 507.598 204.44 511.187 205.367C514.776 206.293 517.851 208.605 519.737 211.796C521.624 214.986 522.167 218.795 521.25 222.386L511.854 259.181Z" fill="#1D1929"/>
<path d="M554.55 271.739L552.546 225.797C551.026 217.161 555.97 208.997 563.574 207.663C571.179 206.333 578.605 212.323 580.132 221.023L587.665 263.95L554.55 271.739Z" fill="#1D1929"/>
<path d="M569.216 328.049C581.131 373.426 582.43 431.119 579.216 494.049L563.216 492.049L534.216 372.049L518.216 494.049L500.216 493.049C494.839 427.02 489.603 370.334 498.216 333.049L569.216 328.049Z" fill="#4A4754"/>
<path d="M550.789 182.035C546.207 186.915 537.698 184.295 537.101 177.628C537.054 177.11 537.057 176.589 537.111 176.072C537.419 173.118 539.125 170.437 538.717 167.318C538.624 166.542 538.335 165.802 537.877 165.169C534.225 160.28 525.654 167.356 522.208 162.93C520.095 160.216 522.579 155.943 520.958 152.91C518.818 148.906 512.479 150.881 508.504 148.688C504.081 146.249 504.346 139.463 507.257 135.336C510.808 130.302 517.033 127.616 523.18 127.229C529.328 126.842 535.433 128.504 541.173 130.741C547.694 133.282 554.16 136.794 558.173 142.528C563.054 149.501 563.523 158.876 561.083 167.03C559.598 171.99 554.531 178.049 550.789 182.035Z" fill="#4A4754"/>
<path d="M762.482 520.574H24.1876C23.8724 520.573 23.5705 520.447 23.3479 520.224C23.1253 520.001 23.0004 519.699 23.0004 519.383C23.0004 519.068 23.1253 518.766 23.3479 518.543C23.5705 518.32 23.8724 518.194 24.1876 518.193H762.482C762.797 518.194 763.099 518.32 763.321 518.543C763.544 518.766 763.669 519.068 763.669 519.383C763.669 519.699 763.544 520.001 763.321 520.224C763.099 520.447 762.797 520.573 762.482 520.574Z" fill="#34303E"/>
<path d="M391.5 411.431H261.5C259.788 411.44 258.142 410.77 256.924 409.567C255.705 408.364 255.013 406.727 255 405.015V114.846C255.013 113.134 255.705 111.497 256.924 110.294C258.142 109.092 259.788 108.421 261.5 108.431H391.5C393.212 108.421 394.858 109.092 396.076 110.294C397.295 111.497 397.987 113.134 398 114.846V405.015C397.987 406.727 397.295 408.364 396.076 409.567C394.858 410.77 393.212 411.44 391.5 411.431Z" fill="white"/>
<path d="M398 202.32H255V204.32H398V202.32Z" fill="#809EFF"/>
<path d="M398.5 316.431H255.5V318.431H398.5V316.431Z" fill="#809EFF"/>
<path d="M302 108.431H300V412.431H302V108.431Z" fill="#809EFF"/>
<path d="M352 108.431H350V412.431H352V108.431Z" fill="#809EFF"/>
</g>
<defs>
<clipPath id="clip0_2781_345526">
<rect width="870" height="520.139" fill="white" transform="translate(-77.5 0.930725)"/>
</clipPath>
</defs>
</svg>
