<svg width="240" height="112" viewBox="0 0 240 112" fill="none" xmlns="http://www.w3.org/2000/svg">
<path d="M95.7467 53.0134L114.413 34.3467L133.08 53.0134C143.409 63.3422 143.409 80.1422 133.08 90.4711L121.507 78.8978C125.489 74.9156 125.489 68.4445 121.507 64.4622C117.524 60.48 111.053 60.48 107.071 64.4622C103.089 68.4445 103.089 74.9156 107.071 78.8978L95.7467 90.4711C85.4178 80.1422 85.4178 63.3422 95.7467 53.0134Z" fill="#132651"/>
<path d="M122.502 44.9244H106.324V8.08889C106.324 3.60889 109.933 0 114.413 0C118.893 0 122.502 3.60889 122.502 8.08889V44.9244Z" fill="#132651"/>
<path d="M114.413 112C119.499 112 123.622 107.877 123.622 102.791C123.622 97.705 119.499 93.582 114.413 93.582C109.327 93.582 105.204 97.705 105.204 102.791C105.204 107.877 109.327 112 114.413 112Z" fill="#132651"/>
</svg>
