<svg width="333" height="274" viewBox="0 0 333 274" fill="none" xmlns="http://www.w3.org/2000/svg">
<g clip-path="url(#clip0_2809_348569)">
<path d="M137.824 81.9221L166.398 53.3867L194.971 81.9221C210.782 97.7117 210.782 123.394 194.971 139.183L177.256 121.491C183.351 115.404 183.351 105.511 177.256 99.4237C171.16 93.3362 161.254 93.3362 155.158 99.4237C149.063 105.511 149.063 115.404 155.158 121.491L137.824 139.183C122.013 123.394 122.013 97.7117 137.824 81.9221Z" fill="#F9F9F9"/>
<path d="M178.779 69.5569H154.016V13.2468C154.016 6.39832 159.54 0.88147 166.398 0.88147C173.255 0.88147 178.779 6.39832 178.779 13.2468V69.5569Z" fill="#F9F9F9"/>
<path d="M166.398 172.094C174.182 172.094 180.495 165.791 180.495 158.017C180.495 150.242 174.182 143.939 166.398 143.939C158.613 143.939 152.301 150.242 152.301 158.017C152.301 165.791 158.613 172.094 166.398 172.094Z" fill="#F9F9F9"/>
<path d="M24.7293 255.541C20.6658 255.541 16.896 255.027 13.4198 253.999C9.94378 252.922 7.00627 251.477 4.6073 249.666L7.47137 242.249C9.87034 243.962 12.4896 245.284 15.3292 246.214C18.2178 247.144 21.3512 247.61 24.7293 247.61C28.597 247.61 31.4122 246.973 33.1747 245.7C34.9372 244.378 35.8184 242.689 35.8184 240.633C35.8184 238.919 35.182 237.573 33.909 236.594C32.6851 235.615 30.5554 234.807 27.52 234.17L19.4418 232.481C10.2375 230.523 5.63543 225.799 5.63543 218.308C5.63543 215.077 6.4922 212.261 8.20575 209.862C9.9193 207.464 12.2938 205.603 15.3292 204.281C18.3647 202.959 21.8652 202.298 25.8309 202.298C29.3559 202.298 32.6606 202.837 35.745 203.914C38.8294 204.942 41.3997 206.411 43.4559 208.32L40.5919 215.37C36.5283 211.943 31.5835 210.23 25.7574 210.23C22.3793 210.23 19.7355 210.94 17.8262 212.359C15.9168 213.779 14.962 215.64 14.962 217.941C14.962 219.703 15.5495 221.123 16.7246 222.2C17.8996 223.228 19.9069 224.036 22.7465 224.624L30.7512 226.313C35.5981 227.341 39.1966 228.956 41.5466 231.159C43.9455 233.363 45.145 236.3 45.145 239.972C45.145 243.056 44.3127 245.774 42.6481 248.124C40.9835 250.474 38.6091 252.31 35.5247 253.631C32.4892 254.904 28.8908 255.541 24.7293 255.541ZM64.6215 254.806V210.891H46.8495V203.033H91.7935V210.891H74.0215V254.806H64.6215ZM111.166 254.806V210.891H93.3936V203.033H138.338V210.891H120.566V254.806H111.166ZM144.293 254.806V203.033H153.693V254.806H144.293ZM189.843 255.541C184.114 255.541 179.267 254.464 175.302 252.31C171.385 250.155 168.399 247.095 166.342 243.13C164.286 239.164 163.258 234.464 163.258 229.03C163.258 223.546 164.311 218.822 166.416 214.856C168.521 210.842 171.557 207.757 175.522 205.603C179.488 203.4 184.237 202.298 189.769 202.298C193.392 202.298 196.795 202.837 199.977 203.914C203.159 204.942 205.803 206.386 207.908 208.247L204.75 215.591C202.449 213.779 200.099 212.482 197.7 211.698C195.301 210.915 192.658 210.523 189.769 210.523C184.286 210.523 180.124 212.115 177.285 215.297C174.494 218.479 173.099 223.057 173.099 229.03C173.099 235.052 174.543 239.629 177.432 242.763C180.32 245.896 184.604 247.463 190.283 247.463C191.899 247.463 193.539 247.34 195.204 247.095C196.917 246.802 198.606 246.386 200.271 245.847V233.803H188.374V226.827H208.129V251.722C205.73 252.897 202.89 253.827 199.61 254.513C196.33 255.198 193.074 255.541 189.843 255.541ZM219.169 254.806V203.033H227.027L245.386 236.888L263.672 203.033H271.383V254.806H262.864V219.923L248.03 246.949H242.522L227.687 220.07V254.806H219.169ZM277.197 254.806L300.623 203.033H308.334L331.761 254.806H322.214L317.074 242.836H291.811L286.744 254.806H277.197ZM304.369 213.241L295.042 235.345H313.842L304.516 213.241H304.369Z" fill="#F9F9F9"/>
</g>
<defs>
<clipPath id="clip0_2809_348569">
<rect width="332" height="272.332" fill="white" transform="translate(0.5 0.834106)"/>
</clipPath>
</defs>
</svg>
